<svg width="240" height="83" viewBox="0 0 240 83" fill="none" xmlns="http://www.w3.org/2000/svg"><path fill-rule="evenodd" clip-rule="evenodd" d="M42.609 46.877c-.08.305-.315.554-.523.554-.297 0-.378.598-.378 2.775 0 2.59-.037 2.775-.548 2.775-.507 0-.548.186-.548 2.463 0 2.957-.212 4.198-.719 4.198-.291 0-.376.558-.376 2.462 0 2.957-.213 4.198-.72 4.198-.293 0-.376.606-.376 2.775 0 2.59-.036 2.775-.547 2.775-.507 0-.548.185-.548 2.463 0 1.355-.077 2.853-.171 3.33l-.171.867h5.819v-1.11c0-.925.091-1.11.547-1.11.512 0 .548-.185.548-2.775s.037-2.775.548-2.775c.512 0 .548-.185.548-2.775v-2.775h6.42c3.53 0 6.487.112 6.57.249.267.436-.173 1.97-.564 1.97-.291 0-.377.56-.377 2.464 0 2.957-.212 4.197-.718 4.197-.289 0-.377.522-.377 2.22v2.22h2.739c2.555 0 2.738-.036 2.738-.555 0-.37.183-.555.548-.555.511 0 .547-.185.547-2.775 0-2.17.083-2.775.377-2.775.506 0 .719-1.24.719-4.197 0-1.905.085-2.463.376-2.463.5 0 .72-1.235.72-4.059 0-1.782.087-2.324.374-2.324.477 0 .714-1.43.718-4.338.002-2.022.06-2.272.55-2.403.502-.132.548-.378.548-2.945V46.32h-5.751v1.11c0 .802-.114 1.11-.41 1.11-.326 0-.411.397-.411 1.908 0 2.425-.24 3.643-.72 3.643-.294 0-.376.605-.376 2.775v2.775H46.089v-.939c0-.706.136-.975.548-1.084.507-.135.548-.379.548-3.33 0-2.952.04-3.196.547-3.33.491-.13.548-.379.548-2.392V46.32h-2.764c-2.534 0-2.776.047-2.907.556zm38.396.554c-.103.622-.34 1.11-.536 1.11-.199 0-.428.484-.527 1.11-.108.682-.323 1.11-.559 1.11-.234 0-.456.433-.568 1.11-.107.642-.338 1.11-.548 1.11-.21 0-.44.469-.548 1.11-.113.683-.334 1.11-.572 1.11-.212 0-.386.25-.386.556 0 .37-.183.555-.548.555-.456 0-.547.185-.547 1.11 0 .924-.092 1.11-.548 1.11-.457 0-.548.185-.548 1.11s-.091 1.11-.548 1.11c-.456 0-.547.185-.547 1.11 0 .9-.098 1.11-.513 1.11-.387 0-.556.273-.688 1.11-.108.682-.323 1.11-.559 1.11-.234 0-.455.433-.568 1.11-.107.642-.338 1.11-.548 1.11-.21 0-.44.468-.548 1.11-.113.682-.334 1.11-.571 1.11-.213 0-.387.25-.387.555 0 .37-.183.555-.548.555-.456 0-.547.185-.547 1.11s-.092 1.11-.548 1.11c-.457 0-.548.185-.548 1.11s-.091 1.11-.548 1.11c-.456 0-.547.185-.547 1.11s-.092 1.11-.548 1.11c-.365 0-.548.185-.548.555 0 .528.183.555 3.673.555h3.673l.185-1.11c.107-.642.338-1.11.548-1.11.21 0 .44-.468.547-1.11.108-.642.338-1.11.548-1.11.21 0 .44-.468.548-1.11l.185-1.11h11.66l.17.867c.095.477.171 1.726.171 2.775 0 1.511.086 1.908.411 1.908.228 0 .41.247.41.555 0 .52.184.555 2.876.555h2.876V77.16c0-1.897-.277-3.087-.719-3.087-.276 0-.376-.431-.376-1.624 0-2.838-.316-5.036-.724-5.036-.273 0-.373-.46-.375-1.735-.004-2.412-.268-3.815-.717-3.815-.281 0-.375-.478-.375-1.908 0-2.424-.24-3.642-.72-3.642-.282 0-.376-.474-.376-1.908 0-2.424-.24-3.643-.719-3.643-.288 0-.376-.521-.376-2.22v-2.22H81.19l-.186 1.11zm17.664.555c0 1.218.1 1.666.372 1.666.384 0 .724 2.166.724 4.62 0 .833.115 1.207.372 1.207.424 0 .716 1.892.72 4.648.002 1.275.101 1.735.375 1.735.384 0 .723 2.166.723 4.62 0 .833.116 1.208.373 1.208.424 0 .716 1.891.72 4.648.002 1.355.093 1.734.414 1.734.309 0 .41.336.41 1.353 0 .744.077 1.743.171 2.22l.172.867h3.252c3.069 0 3.252-.03 3.252-.555 0-.305.173-.555.386-.555.238 0 .458-.427.572-1.11.107-.642.338-1.11.548-1.11.21 0 .441-.468.548-1.11.107-.642.337-1.11.547-1.11.21 0 .441-.468.548-1.11.107-.642.338-1.11.548-1.11.209 0 .44-.468.547-1.11.107-.642.338-1.11.548-1.11.21 0 .441-.468.548-1.11.107-.642.338-1.11.547-1.11.21 0 .441-.468.548-1.11.107-.642.338-1.11.548-1.11.21 0 .44-.468.548-1.11.107-.642.337-1.11.547-1.11.21 0 .441-.468.548-1.11.107-.642.338-1.11.548-1.11.21 0 .44-.469.548-1.11.107-.642.337-1.11.547-1.11.21 0 .441-.469.548-1.11.107-.642.338-1.11.548-1.11.209 0 .44-.469.547-1.11.107-.642.338-1.11.548-1.11.21 0 .441-.469.548-1.11.107-.642.338-1.11.547-1.11.21 0 .441-.469.548-1.11.104-.624.34-1.11.538-1.11.297 0 .695-1.131.695-1.978 0-.133-1.541-.243-3.424-.243-3.24 0-3.423.03-3.423.556 0 .305-.174.554-.387.554-.237 0-.458.428-.571 1.11-.11.66-.337 1.11-.558 1.11-.253 0-.434.537-.56 1.665-.119 1.073-.311 1.665-.537 1.665-.196 0-.433.49-.536 1.11-.107.642-.338 1.11-.548 1.11-.21 0-.441.469-.548 1.11-.107.642-.338 1.11-.547 1.11-.21 0-.441.469-.548 1.11-.107.642-.338 1.11-.548 1.11-.21 0-.44.469-.547 1.11-.114.683-.335 1.11-.572 1.11-.244 0-.387.297-.387.799 0 1.35-.324 2.532-.695 2.532-.198 0-.433.487-.537 1.11-.107.642-.338 1.11-.548 1.11-.21 0-.441.468-.548 1.11-.338 2.03-1.232.999-1.232-1.422 0-.495-.144-.798-.379-.798-.3 0-.422-.938-.58-4.44-.145-3.232-.291-4.44-.538-4.44-.335 0-.694-3.32-.694-6.426 0-1.01-.102-1.344-.411-1.344-.319 0-.41-.37-.41-1.666v-1.665h-6.573v1.665zm37.112-.582c-.124.742-.347 1.127-.709 1.223-.394.104-.528.386-.528 1.105 0 .732-.133 1-.548 1.11-.42.111-.547.379-.547 1.142 0 .812-.102.997-.548.997-.457 0-.548.186-.548 1.11 0 .926-.091 1.11-.548 1.11-.365 0-.547.186-.547.556 0 .305-.174.555-.387.555-.238 0-.458.427-.572 1.11-.107.642-.338 1.11-.547 1.11-.21 0-.441.468-.548 1.11-.107.642-.338 1.11-.548 1.11-.208 0-.439.461-.543 1.083-.124.741-.347 1.127-.709 1.222-.398.106-.528.386-.528 1.138 0 .674-.125.997-.387.997-.237 0-.458.428-.572 1.11-.107.642-.337 1.11-.547 1.11-.21 0-.441.468-.548 1.11-.114.682-.334 1.11-.572 1.11-.213 0-.386.25-.386.555 0 .362-.183.555-.524.555-.398 0-.568.267-.709 1.11-.107.642-.338 1.11-.547 1.11-.21 0-.441.468-.548 1.11-.107.642-.338 1.11-.548 1.11-.21 0-.44.468-.547 1.11-.114.683-.335 1.11-.572 1.11-.213 0-.387.25-.387.555 0 .528.183.555 3.697.555h3.697v-1.11c0-.925.091-1.11.548-1.11.456 0 .547-.185.547-1.11s.092-1.11.548-1.11c.457 0 .548-.185.548-1.11v-1.11h12.049v1.908c0 1.05.077 2.298.172 2.775.094.477.34.867.547.867.207 0 .377.25.377.555 0 .52.182.555 2.909.555h2.91l-.171-.867c-.094-.477-.171-1.476-.171-2.22 0-.954-.11-1.353-.372-1.353-.408 0-.724-2.198-.724-5.036 0-1.183-.101-1.624-.371-1.624-.376 0-.724-2.155-.724-4.48 0-.716-.123-1.07-.372-1.07-.376 0-.723-2.155-.723-4.481 0-.716-.123-1.07-.372-1.07-.376 0-.724-2.154-.724-4.48 0-.73-.121-1.07-.382-1.07-.279 0-.435-.599-.576-2.22l-.194-2.22h-6.194l-.18 1.083zm21.767-.528c0 .37-.183.555-.548.555-.511 0-.548.185-.548 2.775 0 2.17-.082 2.775-.376 2.775-.507 0-.719 1.241-.719 4.198 0 1.905-.086 2.463-.377 2.463-.506 0-.719 1.24-.719 4.197 0 2.278-.041 2.463-.548 2.463-.511 0-.547.185-.547 2.775 0 2.17-.082 2.775-.377 2.775-.506 0-.718 1.24-.718 4.197v2.463h19.717v-1.907c0-1.05.077-2.299.171-2.776l.171-.867h-13.555l.171-.867c.094-.477.171-1.226.171-1.665 0-.525.141-.798.411-.798.325 0 .411-.397.411-1.908 0-2.424.24-3.642.718-3.642.291 0 .377-.558.377-2.463 0-2.956.212-4.197.719-4.197.279 0 .377-.45.379-1.735.004-2.756.297-4.648.72-4.648.285 0 .373-.555.373-2.359v-2.359h-2.739c-2.556 0-2.738.037-2.738.556zm24.099 0c0 .37-.183.555-.548.555-.511 0-.548.185-.548 2.775s-.036 2.775-.548 2.775c-.517 0-.547.186-.547 3.33 0 3.146-.031 3.33-.548 3.33s-.548.186-.548 3.33c0 3.146-.03 3.331-.547 3.331-.512 0-.548.185-.548 2.775 0 2.17-.082 2.775-.376 2.775-.507 0-.719 1.24-.719 4.197v2.463h9.858c9.677 0 9.859-.01 9.859-.555 0-.37.183-.555.548-.555.502 0 .547-.185.547-2.22v-2.22h-14.24v-.798c0-1.364.326-2.532.707-2.532.267 0 .387-.584.446-2.15l.079-2.151 6.504-.075 6.504-.074v-5.54h-6.024c-4.64 0-6.024-.08-6.021-.347.008-.8.359-1.596.703-1.596.281 0 .388-.682.447-2.844l.078-2.845 7.6-.074 7.599-.073v-5.541h-9.859c-9.676 0-9.858.01-9.858.554zM84.253 58.019c.096.937.176 2.498.176 3.468 0 1.382.088 1.763.41 1.763.316 0 .411.355.411 1.527v1.526h-7.394v-1.11c0-.925.092-1.11.548-1.11.365 0 .548-.185.548-.555 0-.306.174-.555.386-.555.238 0 .459-.428.572-1.11.107-.642.338-1.11.548-1.11.21 0 .44-.468.547-1.11.107-.642.339-1.11.548-1.11.21 0 .44-.468.548-1.11.172-1.03.25-1.11 1.08-1.11.895 0 .896 0 1.072 1.706zm54.675.722c.004 3.072.233 4.51.718 4.51.272 0 .375.419.375 1.526v1.526h-3.834c-2.109 0-3.834-.11-3.834-.243 0-.871.402-1.977.719-1.977.207 0 .377-.25.377-.555 0-.37.182-.555.547-.555.457 0 .548-.185.548-1.11s.091-1.11.548-1.11c.456 0 .547-.185.547-1.11s.092-1.11.548-1.11c.457 0 .548-.186.548-1.11v-1.11h2.19l.003 2.428zM58.755 4.331c-.495.1-.616.312-.616 1.077 0 .767-.106.952-.548.952-.456 0-.547.185-.547 1.11s-.092 1.11-.548 1.11c-.457 0-.548.185-.548 1.11s-.091 1.11-.547 1.11c-.457 0-.548.185-.548 1.11 0 .9-.097 1.11-.513 1.11-.386 0-.556.274-.688 1.11-.105.664-.325 1.11-.547 1.11-.223 0-.443.446-.548 1.11-.114.719-.32 1.11-.583 1.11-.231 0-.407.252-.407.582 0 .347-.22.639-.548.726-.412.109-.548.378-.548 1.084 0 .753-.108.939-.548.939-.456 0-.547.185-.547 1.11s-.091 1.11-.548 1.11c-.456 0-.547.185-.547 1.11s-.092 1.11-.548 1.11c-.457 0-.548.185-.548 1.11 0 .9-.097 1.11-.513 1.11-.386 0-.556.273-.688 1.11-.105.664-.324 1.11-.547 1.11-.223 0-.443.446-.548 1.11-.114.718-.319 1.11-.583 1.11-.224 0-.407.249-.407.555 0 .37-.183.555-.548.555-.456 0-.548.185-.548 1.11s-.09 1.11-.548 1.11c-.364 0-.547.185-.547.555 0 .524.183.555 3.286.555 2.615 0 3.287-.078 3.287-.384 0-.211.246-.449.547-.529.415-.11.548-.378.548-1.11 0-.731.132-1 .547-1.11.416-.11.548-.379.548-1.11 0-.732.133-1 .548-1.11a.737.737 0 00.548-.732c0-.58.053-.585 5.956-.511l5.956.075.078 2.705c.063 2.154.16 2.706.48 2.706.22 0 .4.25.4.555 0 .52.183.555 2.876.555h2.876v-1.353c0-1.897-.277-3.087-.72-3.087-.276 0-.376-.431-.376-1.624 0-2.838-.316-5.036-.723-5.036-.275 0-.372-.464-.372-1.77 0-2.291-.249-3.503-.72-3.503-.284 0-.376-.495-.376-2.047 0-2.557-.232-3.78-.719-3.78-.282 0-.376-.475-.376-1.909 0-2.407-.24-3.642-.707-3.642-.266 0-.387-.584-.445-2.15l-.08-2.151-2.602-.037c-1.43-.02-2.879.02-3.218.09zm21.1.354c-.08.31-.316.565-.524.565-.298 0-.379.601-.379 2.801 0 2.568-.046 2.813-.548 2.946-.497.132-.548.38-.551 2.68-.004 2.89-.173 3.784-.713 3.784-.294 0-.379.55-.379 2.462 0 2.957-.212 4.198-.719 4.198-.29 0-.376.558-.376 2.463 0 2.956-.213 4.197-.72 4.197-.286 0-.377.513-.38 2.15-.001 1.183-.078 2.432-.168 2.776-.164.618-.14.624 2.742.624h2.908v-1.11c0-.75.12-1.11.371-1.11.408 0 .724-2.198.724-5.036 0-1.183.1-1.624.372-1.624.375 0 .723-2.155.723-4.481 0-.715.123-1.07.372-1.07.4 0 .724-2.187.724-4.897 0-1.08.103-1.485.378-1.485.209 0 .444.25.522.555.079.305.326.555.548.555.452 0 .733.808.739 2.118.002.635.151.909.551 1.015.42.111.548.379.548 1.142 0 .683.124.998.394.998.257 0 .458.434.579 1.248.107.727.33 1.25.532 1.25.403 0 .677.862.682 2.15.002.59.137.902.39.902.238 0 .458.427.572 1.11.104.623.34 1.11.538 1.11.37 0 .694 1.183.694 2.532 0 .613.128.798.548.798.457 0 .548.185.548 1.11 0 .802.114 1.11.41 1.11.229 0 .411.247.411.555 0 .52.183.555 2.876.555s2.876-.035 2.876-.555c0-.305.167-.555.371-.555.408 0 .724-2.198.724-5.036 0-1.183.1-1.624.372-1.624.375 0 .723-2.155.723-4.481 0-.715.123-1.07.372-1.07.408 0 .724-2.197.724-5.035 0-1.183.101-1.625.371-1.625.408 0 .724-2.197.724-5.036 0-1.178.101-1.624.37-1.624.271 0 .417-.684.548-2.552.099-1.404.075-2.657-.052-2.786s-1.39-.198-2.807-.154l-2.578.08-.084 1.041c-.056.681-.222 1.041-.48 1.041-.304 0-.395.43-.397 1.873-.004 2.544-.26 3.955-.718 3.955-.287 0-.374.542-.374 2.324 0 2.823-.22 4.058-.72 4.058-.281 0-.377.47-.378 1.874-.004 2.886-.29 4.787-.72 4.787-.206 0-.373-.25-.373-.555 0-.37-.183-.555-.548-.555-.446 0-.548-.185-.548-.998 0-.763-.128-1.03-.547-1.142-.381-.1-.548-.378-.548-.91 0-1.32-.328-2.5-.695-2.5-.198 0-.434-.488-.537-1.11-.114-.683-.335-1.11-.572-1.11-.225 0-.387-.277-.387-.66 0-1.213-.339-2.393-.688-2.393-.2 0-.423-.528-.53-1.249-.12-.814-.322-1.249-.579-1.249-.27 0-.394-.314-.394-.997 0-.764-.128-1.031-.547-1.142-.344-.091-.548-.379-.548-.772 0-1.199-.345-2.361-.7-2.361-.196 0-.397-.281-.445-.625-.083-.593-.224-.628-2.78-.704-2.514-.074-2.703-.042-2.84.486zm30.773-.36c-.101.102-.183.851-.183 1.665 0 1.078-.103 1.48-.38 1.48-.293 0-.426.769-.578 3.33-.152 2.562-.286 3.33-.578 3.33-.257 0-.381.339-.383 1.041-.005 2.469-.354 4.787-.722 4.787-.266 0-.371.42-.371 1.486 0 2.575-.327 4.897-.689 4.897-.236 0-.395.989-.532 3.33-.153 2.59-.283 3.33-.584 3.33-.29 0-.386.416-.386 1.665v1.665h6.233l.197-3.191c.151-2.457.285-3.192.58-3.192.261 0 .384-.334.386-1.04.005-2.469.354-4.787.722-4.787.265 0 .372-.417.373-1.457.004-2.722.334-5.204.692-5.204.243 0 .399-.965.539-3.33.152-2.561.285-3.33.578-3.33.259 0 .38-.341.38-1.069 0-2.326.348-4.48.724-4.48.745 0 .348-.769-.484-.937-1.141-.232-5.303-.223-5.534.011zm13.044.36c-.08.31-.316.565-.525.565-.254 0-.379.34-.38 1.04-.005 2.47-.355 4.788-.723 4.788-.266 0-.371.42-.371 1.485 0 2.71-.323 4.897-.723 4.897-.271 0-.372.442-.372 1.625 0 2.722-.319 5.036-.694 5.036-.243 0-.398.962-.538 3.33-.153 2.561-.286 3.33-.579 3.33-.258 0-.38.341-.38 1.07 0 .587-.079 1.836-.176 2.774l-.176 1.706h5.829v-1.11c0-.762.119-1.11.38-1.11.293 0 .426-.769.578-3.33.153-2.561.286-3.33.579-3.33.258 0 .38-.342.38-1.07 0-2.326.348-4.48.723-4.48.284 0 .372-.552.372-2.325 0-1.278.077-2.714.171-3.19.193-.975.786-1.16 1.004-.313.079.305.34.555.58.555.276 0 .436.241.436.659 0 1.21.339 2.394.684 2.394.188 0 .42.5.517 1.11.106.67.324 1.11.551 1.11.237 0 .446.465.562 1.248.12.815.321 1.25.578 1.25.233 0 .395.27.395.658 0 1.21.338 2.394.683 2.394.188 0 .421.5.517 1.11.113.718.319 1.11.583 1.11.266 0 .407.276.407.798 0 1.35.325 2.532.695 2.532.198 0 .434.487.538 1.11.113.683.334 1.11.571 1.11.213 0 .387.25.387.555 0 .52.183.555 2.875.555 2.693 0 2.876-.035 2.876-.555 0-.308.183-.555.411-.555.318 0 .41-.365.41-1.624 0-2.838.316-5.036.724-5.036.277 0 .372-.486.372-1.908 0-2.424.241-3.642.719-3.642.289 0 .377-.534.379-2.29.004-2.94.239-4.37.718-4.37.275 0 .375-.435.375-1.625 0-2.734.318-5.036.696-5.036.371 0 .733-4.936.392-5.353-.098-.12-1.339-.183-2.756-.139l-2.577.08-.085 1.041c-.051.624-.228 1.041-.44 1.041-.367 0-.707 2.226-.707 4.62 0 .832-.116 1.208-.372 1.208-.401 0-.724 2.187-.724 4.897 0 1.065-.105 1.485-.371 1.485-.391 0-.718 2.357-.722 5.204-.002 1.054-.107 1.457-.381 1.457-.208 0-.443-.25-.522-.555-.079-.306-.338-.555-.577-.555-.293 0-.489-.358-.608-1.11-.096-.61-.329-1.11-.517-1.11-.36 0-.683-1.197-.683-2.533 0-.521-.142-.797-.408-.797-.264 0-.469-.392-.583-1.11-.096-.612-.329-1.11-.518-1.11-.396 0-.673-.864-.678-2.119-.003-.634-.152-.909-.552-1.015-.435-.115-.547-.378-.547-1.28 0-.821-.114-1.137-.408-1.137-.264 0-.47-.392-.583-1.11-.096-.61-.329-1.11-.517-1.11-.345 0-.683-1.184-.683-2.393 0-.387-.162-.66-.392-.66-.216 0-.431-.28-.479-.624-.084-.593-.224-.628-2.781-.704-2.513-.074-2.703-.042-2.839.486zm30.669.01c-.079.305-.298.555-.488.555-.455 0-.687 1.274-.687 3.781 0 1.541-.092 2.047-.372 2.047-.424 0-.717 1.892-.721 4.648-.001 1.282-.1 1.734-.377 1.734-.479 0-.714 1.432-.717 4.371-.003 1.756-.091 2.29-.38 2.29-.506 0-.719 1.24-.719 4.197 0 1.89-.086 2.463-.372 2.463-.375 0-.723 2.155-.723 4.48v1.07h6.54c6.311 0 6.546-.02 6.684-.555.122-.471.374-.555 1.675-.555 1.349 0 1.532-.066 1.532-.555 0-.463.182-.555 1.095-.555s1.096-.092 1.096-.555c0-.37.182-.555.547-.555.366 0 .548-.185.548-.555 0-.37.183-.555.548-.555.365 0 .547-.185.547-.555 0-.37.183-.555.548-.555.365 0 .548-.185.548-.555 0-.37.183-.555.548-.555.446 0 .547-.185.547-.997 0-.764.128-1.032.548-1.143.429-.113.548-.378.548-1.223 0-.892.094-1.077.548-1.077.496 0 .547-.187.551-2.012.004-2.382.197-3.26.713-3.26.292 0 .379-.537.379-2.36s-.087-2.359-.379-2.359c-.479 0-.708-.858-.713-2.673-.003-1.19-.094-1.448-.551-1.57-.42-.11-.548-.378-.548-1.142 0-.812-.102-.997-.548-.997-.365 0-.548-.185-.548-.555 0-.323-.182-.555-.436-.555-.24 0-.499-.241-.575-.536-.094-.366-.474-.592-1.206-.718-.807-.138-1.069-.313-1.069-.713 0-.457-.205-.53-1.474-.53-1.244 0-1.497-.087-1.618-.556-.137-.531-.373-.555-5.534-.555s-5.398.024-5.535.555zm35.727-.356c-.647.1-.753.245-.753 1.036 0 .687-.139.957-.548 1.066-.415.11-.547.378-.547 1.11 0 .731-.133 1-.548 1.11-.42.11-.548.378-.548 1.142 0 .812-.102.997-.548.997-.456 0-.547.185-.547 1.11s-.091 1.11-.548 1.11c-.456 0-.548.186-.548 1.11 0 .925-.091 1.11-.547 1.11-.457 0-.548.185-.548 1.11s-.091 1.11-.548 1.11c-.401 0-.547.186-.547.694 0 .509-.147.694-.548.694-.44 0-.548.185-.548.939 0 .706-.136.975-.548 1.084-.419.111-.547.379-.547 1.142 0 .813-.102.998-.548.998-.457 0-.548.185-.548 1.11s-.091 1.11-.548 1.11c-.456 0-.547.185-.547 1.11s-.091 1.11-.548 1.11c-.456 0-.548.185-.548 1.11s-.091 1.11-.547 1.11c-.457 0-.548.185-.548 1.11s-.091 1.11-.548 1.11c-.353 0-.547.185-.547.523 0 .289-.245.587-.548.667-.415.11-.548.379-.548 1.11 0 .732-.132 1-.547 1.11-.302.08-.548.344-.548.588 0 .381.473.442 3.423.442 2.86 0 3.423-.068 3.423-.416 0-.229.169-.417.376-.417.227 0 .445-.44.551-1.11.105-.664.325-1.11.547-1.11.223 0 .443-.445.548-1.11.114-.718.319-1.11.583-1.11.252 0 .408-.264.408-.693v-.694h12.049v2.775c0 2.59.037 2.775.548 2.775.365 0 .547.185.547.555 0 .518.183.555 2.739.555h2.738v-2.22c0-2.035-.045-2.22-.547-2.22-.517 0-.548-.185-.548-3.33s-.03-3.33-.547-3.33c-.51 0-.548-.185-.548-2.637 0-2.45-.039-2.636-.548-2.636-.513 0-.548-.185-.548-2.914s-.034-2.914-.547-2.914c-.512 0-.548-.185-.548-2.775s-.037-2.775-.548-2.775c-.502 0-.548-.185-.548-2.22V4.14l-2.533.042c-1.393.022-2.871.093-3.286.157zm-24.852 5.882c0 .403.264.576 1.095.718 1.035.177 1.096.242 1.096 1.16 0 .74.131 1.008.547 1.118.518.138.548.379.548 4.415 0 3.437-.073 4.269-.376 4.269-.388 0-.719 1.151-.719 2.5 0 .532-.167.81-.548.91-.42.111-.548.379-.548 1.142 0 .813-.101.998-.547.998-.366 0-.548.185-.548.555 0 .37-.183.555-.548.555-.357 0-.547.185-.547.53 0 .403-.264.576-1.096.719-.674.115-1.095.338-1.095.579 0 .316-.639.392-3.287.392h-3.286v-.798c0-1.378.328-2.532.719-2.532.29 0 .377-.538.377-2.324 0-2.823.218-4.059.719-4.059.285 0 .376-.495.376-2.047 0-2.556.233-3.78.719-3.78.292 0 .376-.582.376-2.617 0-3.062-.303-2.836 3.903-2.896 2.459-.035 2.67.004 2.67.493zm-105.16 3.474c0 .218.277.437.616.485.594.086.62.207.694 3.35.059 2.505.162 3.26.445 3.26.383 0 .71 1.165.71 2.533v.798h-7.668v-1.11c0-.925.09-1.11.548-1.11.443 0 .547-.186.547-.972s.105-.97.548-.97c.454 0 .547-.186.547-1.078 0-.845.12-1.11.548-1.224.416-.11.548-.378.548-1.11 0-.731.133-1 .548-1.11.42-.11.547-.378.547-1.142 0-.701.122-.997.411-.997.226 0 .411.179.411.397zm131.45.02c0 .23.243.415.548.415.517 0 .547.185.547 3.33s.031 3.33.548 3.33c.487 0 .547.186.547 1.666v1.665h-7.667v-.998c0-.747.13-1.031.522-1.135.332-.088.585-.482.697-1.084.096-.52.338-.946.538-.946.212 0 .436-.462.539-1.11.105-.664.325-1.11.547-1.11.223 0 .443-.446.548-1.11.105-.664.325-1.11.548-1.11.223 0 .443-.446.547-1.11.114-.718.32-1.11.583-1.11.224 0 .408.187.408.416z" fill="#5C6374"/></svg>