<svg width="240" height="80" viewBox="0 0 240 80" fill="none" xmlns="http://www.w3.org/2000/svg"><path d="M38.933 41.067c0 .8.267 1.333.8 1.866.267.534.8 1.067 1.334 1.334.533.266 1.333.533 1.866.8.8.266 1.334.266 2.134.266 1.333 0 2.133-.266 2.933-.533.8-.267 1.333-.8 1.867-1.067.533-.533 1.066-.8 1.6-1.066.533-.267 1.066-.534 1.6-.534.8 0 1.6.267 2.4.8.533.534 1.066 1.067 1.066 1.867S56 46.667 55.2 47.2c-.8.8-1.867 1.333-2.933 2.133-1.067.534-2.4 1.067-3.734 1.334-1.333.266-2.4.533-3.466.533-1.867 0-3.467-.267-5.067-.8s-2.933-1.333-4-2.4c-1.067-1.067-2.133-2.133-2.667-3.467-.8-1.333-1.066-2.933-1.066-4.533 0-1.6.266-3.2 1.066-4.533.534-1.334 1.6-2.667 2.667-3.734 1.067-1.066 2.667-1.866 4-2.4 1.6-.533 3.2-.8 5.067-.8 1.6 0 3.2.267 4.533.8 1.333.534 2.667 1.067 3.733 2.134.534.266 1.067.8 1.6 1.6.534.533 1.067 1.333 1.334 1.866.533.8.8 1.334 1.066 2.134.267.8.534 1.333.534 1.866 0 .8-.267 1.334-.8 1.867-.534.533-1.6.8-2.667.8l-15.467-.533zM51.2 36.8c0-.267-.267-.533-.533-1.067L49.6 34.667c-.533-.267-1.067-.534-1.867-.8-.8-.267-1.333-.267-2.133-.267s-1.6 0-2.133.267c-.8.266-1.334.533-1.867.8-.533.266-1.067.533-1.333 1.066-.267.267-.534.8-.8 1.067H51.2zm9.6 2.4c0-1.6.267-3.2 1.067-4.533.8-1.334 1.6-2.667 2.666-3.734 1.067-1.066 2.4-1.866 4-2.4 1.6-.533 3.2-.8 5.067-.8 1.067 0 2.133 0 3.467.267 1.066.267 2.4.533 3.2 1.067 1.066.533 1.866 1.066 2.4 1.6.533.533 1.066 1.333 1.066 2.133s-.266 1.6-1.066 2.133c-.8.534-1.334.8-2.4.8-.534 0-1.067 0-1.334-.266-.266-.267-.8-.534-1.333-.8l-1.6-.8c-.533-.267-1.333-.267-2.4-.267-.8 0-1.6.267-2.4.533-.8.267-1.333.8-2.133 1.334-.534.533-1.067 1.066-1.334 1.866-.266.8-.533 1.334-.533 2.134 0 .8.267 1.6.533 2.133.267.8.8 1.333 1.334 1.867C69.6 44 70.4 44.533 71.2 44.8c.8.267 1.6.533 2.4.533 1.067 0 1.867-.266 2.4-.533.533-.267 1.067-.8 1.6-1.067.533-.533 1.067-.8 1.333-1.066.534-.267 1.067-.534 1.867-.534s1.6.267 2.4.8c.8.534 1.067 1.067 1.067 1.6 0 .8-.267 1.867-1.067 2.667-.8.8-1.6 1.6-2.667 2.133-1.066.534-2.133 1.067-3.466 1.334-1.334.266-2.667.533-3.734.533-1.866 0-3.466-.267-5.066-.8-1.6-.533-2.934-1.333-4-2.4-1.067-1.067-2.134-2.4-2.667-3.733-.533-1.867-.8-3.2-.8-5.067zm26.4 0c0-1.6.267-3.2 1.067-4.533.8-1.334 1.6-2.667 2.666-3.734 1.067-1.066 2.4-1.866 4-2.4 1.6-.533 3.2-.8 5.067-.8s3.467.267 5.067.8c1.6.534 2.933 1.334 4 2.4A20.163 20.163 0 01112 34.667c.8 1.333 1.067 2.933 1.067 4.533 0 1.6-.267 3.2-1.067 4.533-.8 1.334-1.6 2.667-2.933 3.734-1.067 1.066-2.667 1.866-4 2.4-1.6.533-3.2.8-5.067.8s-3.467-.267-5.067-.8c-1.6-.534-2.933-1.334-4-2.4-1.066-1.067-2.133-2.4-2.666-3.734C87.733 42.4 87.2 41.067 87.2 39.2zm13.067-5.6c-.8 0-1.6.267-2.4.533-.8.267-1.334.8-2.134 1.334-.533.533-1.066 1.066-1.333 1.866-.267.8-.533 1.6-.533 2.4 0 .8.266 1.6.533 2.134.267.8.8 1.333 1.333 1.866.534.534 1.334 1.067 2.134 1.334.8.266 1.6.533 2.4.533.8 0 1.6-.267 2.4-.533.8-.267 1.6-.8 2.133-1.334.533-.533 1.067-1.066 1.333-1.866.267-.8.534-1.334.534-2.134 0-.8-.267-1.6-.534-2.4-.266-.8-.8-1.333-1.333-1.866-.533-.534-1.333-1.067-2.133-1.334-.8-.533-1.6-.533-2.4-.533zm28.8-16.267c1.6 0 2.933.267 4.533.8 1.333.534 2.667 1.334 3.733 2.134 1.067 1.066 1.867 2.133 2.4 3.2.534 1.333.8 2.666.8 4 0 1.333-.266 2.666-.8 4-.533 1.333-1.333 2.4-2.4 3.2-1.066 1.066-2.4 1.6-3.733 2.133-1.333.533-2.933.8-4.533.8h-5.6v9.333c0 2.134-1.067 3.2-3.467 3.2-2.4 0-3.467-1.066-3.467-3.2V21.067c0-2.4 1.334-3.734 4-3.734h8.534zm-5.6 14.4h5.6c1.333 0 2.4-.266 3.2-1.066.8-.8 1.333-1.867 1.333-2.934 0-1.066-.533-2.133-1.333-2.933-.8-.8-1.867-1.333-3.2-1.333h-5.6v8.266zM166.4 48.267c0 .8-.267 1.6-1.067 2.133-.533.533-1.333.8-2.133.8-1.6 0-2.667-.8-2.933-2.4-.8.8-1.867 1.6-2.934 1.867-1.066.266-2.4.533-3.466.533-1.867 0-3.467-.267-5.067-.8s-2.933-1.333-4-2.4c-1.067-1.067-2.133-2.4-2.667-3.733-.533-1.334-1.066-2.934-1.066-4.534 0-1.6.266-3.2.8-4.533.533-1.333 1.6-2.667 2.666-3.733 1.067-1.067 2.4-1.867 3.734-2.4 1.333-.534 2.933-.8 4.8-.8 1.6 0 2.666.266 4 .533 1.066.267 2.133 1.067 2.933 1.867.267-.8.8-1.334 1.067-1.6.533-.267 1.066-.534 1.866-.534 1.067 0 1.867.267 2.4.8.534.534.8 1.334.8 2.134v16.8h.267zM153.867 33.6c-.8 0-1.6.267-2.4.533-.8.267-1.334.8-1.867 1.334-.533.533-1.067 1.066-1.333 1.866-.267.8-.534 1.334-.534 2.134 0 .8.267 1.6.534 2.133.266.8.8 1.333 1.333 1.867.533.533 1.067 1.066 1.867 1.333.8.267 1.6.533 2.4.533 1.866 0 3.2-.533 4.266-1.6 1.067-1.066 1.6-2.4 1.6-4 0-.8-.266-1.6-.533-2.133-.267-.8-.8-1.333-1.333-1.867-.534-.533-1.067-1.066-1.867-1.333-.533-.8-1.333-.8-2.133-.8zm27.466 7.2l5.334-10.667c.266-.533.8-1.066 1.333-1.333.533-.267 1.067-.267 1.6-.267.8 0 1.6.267 2.133.8.534.534 1.067 1.334 1.067 2.134 0 .266 0 .8-.267 1.066l-14.666 28.8c-.267.534-.8 1.067-1.067 1.067-.533.267-1.067.267-1.6.267-.8 0-1.6-.267-2.4-.8-.533-.534-1.067-1.067-1.067-2.134v-.8c0-.266.267-.533.267-.8l5.333-11.2-7.733-14.666c-.267-.534-.267-1.067-.267-1.334 0-.8.267-1.6 1.067-2.133.8-.533 1.333-.8 2.133-.8 1.334 0 2.134.533 2.667 1.6l6.133 11.2zm30.134-12.533c1.066 0 1.866.266 2.4 1.066.533.534.8 1.334.8 2.134 0 .266 0 .533-.267.8 0 .266-.267.533-.533 1.066l-8.8 11.734h7.466c2.134 0 3.467 1.066 3.467 2.933 0 1.867-1.067 2.933-3.467 2.933H200c-1.333 0-2.133-.266-2.667-.8-.533-.533-.8-1.333-.8-2.133s.267-1.333.8-2.133l8.267-11.2H200c-2.4 0-3.467-1.067-3.467-2.934 0-1.866 1.067-2.933 3.467-2.933h11.467v-.533z" fill="#5B6376"/><path d="M28.533 39.733c0-10.4 14.134-18.666 31.734-18.666 11.466 0 21.6 3.733 26.933 9.066-4.8-6.666-16.533-11.466-30.133-11.466-18.4 0-33.067 8.266-33.067 18.4 0 4.266 2.667 8.266 7.2 11.466-1.6-3.2-2.667-5.066-2.667-8.8z" fill="#5B6376"/></svg>