<svg width="799" height="165" viewBox="0 0 799 165" fill="none" xmlns="http://www.w3.org/2000/svg"><path fill-rule="evenodd" clip-rule="evenodd" d="M447 40.5c0 .275-.625.5-1.389.5-.816 0-1.687.413-2.111 1-.396.55-1.016 1-1.377 1-.853 0-4.123 3.27-4.123 4.123 0 .361-.45.98-1 1.377s-1 1.121-1 1.61c0 .49-.225.89-.5.89s-.5.45-.5 1-.225 1-.5 1-.5.45-.5 1-.225 1-.5 1-.5.45-.5 1-.225 1-.5 1-.5.4-.5.89c0 .489-.45 1.213-1 1.61s-1 1.121-1 1.61c0 .49-.225.89-.5.89s-.5.45-.5 1-.225 1-.5 1-.5.45-.5 1-.225 1-.5 1-.5.45-.5 1-.225 1-.5 1-.5.45-.5 1-.225 1-.5 1-.5.45-.5 1-.225 1-.5 1-.5.4-.5.89c0 .489-.45 1.213-1 1.61s-1 1.121-1 1.61c0 .49-.225.89-.5.89s-.5.45-.5 1-.225 1-.5 1-.5.45-.5 1-.225 1-.5 1-.5.45-.5 1-.225 1-.5 1-.5.45-.5 1-.225 1-.5 1-.5.45-.5 1-.225 1-.5 1-.5.45-.5 1-.225 1-.5 1-.5.45-.5 1-.225 1-.5 1-.5.4-.5.89c0 .489-.45 1.213-1 1.61s-1 1.121-1 1.61c0 .49-.225.89-.5.89s-.5.45-.5 1-.225 1-.5 1-.5.45-.5 1-.225 1-.5 1-.5.45-.5 1-.225 1-.5 1-.5.45-.5 1-.225 1-.5 1-.5.45-.5 1-.225 1-.5 1-.5.45-.5 1-.225 1-.5 1-.5.4-.5.889c0 .49-.45 1.214-1 1.611-.55.396-1 1.121-1 1.61 0 .489-.225.89-.5.89s-.5.45-.5 1-.225 1-.5 1-.5.45-.5 1-.225 1-.5 1-.5.45-.5 1-.225 1-.5 1-.5.45-.5 1-.225 1-.5 1-.5.45-.5 1-.225 1-.5 1-.5.45-.5 1c0 .968.333 1 10.5 1s10.5-.032 10.5-1c0-.55.225-1 .5-1s.5-.401.5-.89.45-1.214 1-1.61c.552-.398 1-1.295 1-2 0-.706.448-1.603 1-2 .55-.397 1-1.121 1-1.611 0-.489.225-.889.5-.889s.5-.45.5-1 .225-1 .5-1 .5-.45.5-1 .225-1 .5-1 .5-.45.5-1 .225-1 .5-1 .5-.45.5-1 .225-1 .5-1 .5-.45.5-1 .225-1 .5-1 .5-.45.5-1 .225-1 .5-1 .5-.45.5-1 .225-1 .5-1 .5-.4.5-.89c0-.489.45-1.213 1-1.61s1-1.121 1-1.61c0-.49.225-.89.5-.89s.5-.45.5-1 .225-1 .5-1 .5-.45.5-1 .225-1 .5-1 .5-.45.5-1 .225-1 .5-1 .5-.45.5-1 .225-1 .5-1 .5-.45.5-1 .225-1 .5-1 .5-.45.5-1 .225-1 .5-1 .5-.45.5-1 .225-1 .5-1 .5-.45.5-1 .225-1 .5-1 .5-.4.5-.89c0-.489.45-1.213 1-1.61.552-.397 1-1.294 1-2s.448-1.603 1-2c.55-.397 1-1.121 1-1.61 0-.49.225-.89.5-.89s.5-.45.5-1 .225-1 .5-1 .5-.45.5-1 .225-1 .5-1 .5-.45.5-1 .225-1 .5-1 .5-.45.5-1c0-.576.333-1 .785-1 1.011 0 2.215 1.204 2.215 2.215 0 .431.225.785.5.785s.5.45.5 1 .225 1 .5 1 .5.4.5.89c0 .489.45 1.213 1 1.61.552.397 1 1.294 1 2s.448 1.603 1 2c.55.397 1 1.121 1 1.61 0 .49.225.89.5.89s.5.45.5 1 .225 1 .5 1 .5.45.5 1 .225 1 .5 1 .5.45.5 1 .225 1 .5 1 .5.45.5 1 .225 1 .5 1 .5.45.5 1 .225 1 .5 1 .5.4.5.89c0 .489.45 1.213 1 1.61.587.424 1 1.294 1 2.11V92h-11.5c-11.167 0-11.5.029-11.5 1 0 .55.225 1 .5 1s.5.45.5 1 .225 1 .5 1 .5.45.5 1 .225 1 .5 1 .5.45.5 1 .225 1 .5 1 .5.45.5 1 .225 1 .5 1 .5.45.5 1 .225 1 .5 1 .5.347.5.772c0 .425.553 1.325 1.228 2l1.226 1.228h11.559c12.065 0 12.987.157 12.987 2.214 0 .432.225.786.5.786s.5.45.5 1 .225 1 .5 1 .5.45.5 1 .225 1 .5 1 .5.4.5.889c0 .49.45 1.214 1 1.611.55.396 1 1.121 1 1.61 0 .489.225.89.5.89s.5.45.5 1 .225 1 .5 1 .5.353.5.785c0 1.959 1.115 2.215 9.672 2.215 6.107 0 8.32.162 8.536.625.233.5.351.5.584 0 .346-.742 2.208-.847 2.208-.125 0 .275.225.5.5.5s.5-.45.5-1-.225-1-.5-1-.5-.45-.5-1-.225-1-.5-1-.5-.45-.5-1-.225-1-.5-1-.5-.45-.5-1-.225-1-.5-1-.5-.45-.5-1-.225-1-.5-1-.5-.45-.5-1-.225-1-.5-1-.5-.45-.5-1-.225-1-.5-1-.5-.45-.5-1-.225-1-.5-1-.5-.45-.5-1-.225-1-.5-1-.5-.45-.5-1-.225-1-.5-1-.5-.401-.5-.89-.45-1.214-1-1.61c-.55-.397-1-1.121-1-1.611 0-.489-.225-.889-.5-.889s-.5-.45-.5-1-.225-1-.5-1-.5-.45-.5-1-.225-1-.5-1-.5-.45-.5-1-.225-1-.5-1-.5-.45-.5-1-.225-1-.5-1-.5-.45-.5-1-.225-1-.5-1-.5-.45-.5-1-.225-1-.5-1-.5-.4-.5-.89c0-.489-.45-1.213-1-1.61s-1-1.121-1-1.61c0-.49-.225-.89-.5-.89s-.5-.45-.5-1-.225-1-.5-1-.5-.45-.5-1-.225-1-.5-1-.5-.45-.5-1-.225-1-.5-1-.5-.45-.5-1-.225-1-.5-1-.5-.45-.5-1-.225-1-.5-1-.5-.45-.5-1-.225-1-.5-1-.5-.45-.5-1-.225-1-.5-1-.5-.4-.5-.89c0-.489-.45-1.213-1-1.61-.552-.397-1-1.294-1-2s-.448-1.602-1-2c-.55-.397-1-1.121-1-1.61 0-.49-.225-.89-.5-.89s-.5-.45-.5-1-.225-1-.5-1-.5-.45-.5-1-.225-1-.5-1-.5-.45-.5-1-.225-1-.5-1-.5-.45-.5-1-.225-1-.5-1-.5-.4-.5-.89c0-.489-.45-1.213-1-1.61s-1-1.072-1-1.5c0-.428-.45-1.103-1-1.5s-1-1.025-1-1.396c0-.87-1.234-2.104-2.104-2.104-.372 0-1-.45-1.396-1-.396-.55-1.121-1-1.611-1-.489 0-.889-.225-.889-.5s-.675-.5-1.5-.5-1.5-.225-1.5-.5c0-.291-1.667-.5-4-.5s-4 .209-4 .5zm216 0c0 .275-.626.5-1.39.5-.816 0-1.686.413-2.11 1-.396.55-1.016 1-1.377 1-.853 0-4.123 3.27-4.123 4.123 0 .361-.45.98-1 1.377s-1 1.121-1 1.61c0 .49-.225.89-.5.89s-.5.45-.5 1-.225 1-.5 1-.5.45-.5 1-.225 1-.5 1-.5.45-.5 1-.225 1-.5 1-.5.45-.5 1-.225 1-.5 1-.5.45-.5 1-.225 1-.5 1-.5.4-.5.89c0 .489-.45 1.213-1 1.61s-1 1.121-1 1.61c0 .49-.225.89-.5.89s-.5.45-.5 1-.225 1-.5 1-.5.45-.5 1-.225 1-.5 1-.5.45-.5 1-.225 1-.5 1-.5.45-.5 1-.225 1-.5 1-.5.4-.5.89c0 .489-.45 1.213-1 1.61s-1 1.121-1 1.61c0 .49-.225.89-.5.89s-.5.45-.5 1-.225 1-.5 1-.5.45-.5 1-.225 1-.5 1-.5.45-.5 1-.225 1-.5 1-.5.45-.5 1-.225 1-.5 1-.5.45-.5 1-.225 1-.5 1-.5.45-.5 1-.225 1-.5 1-.5.4-.5.89c0 .489-.45 1.213-1 1.61s-1 1.121-1 1.61c0 .49-.225.89-.5.89s-.5.45-.5 1-.225 1-.5 1-.5.45-.5 1-.225 1-.5 1-.5.45-.5 1-.225 1-.5 1-.5.45-.5 1-.225 1-.5 1-.5.45-.5 1-.225 1-.5 1-.5.45-.5 1-.225 1-.5 1-.5.4-.5.889c0 .49-.45 1.214-1 1.611-.55.396-1 1.121-1 1.61 0 .489-.225.89-.5.89s-.5.45-.5 1-.225 1-.5 1-.5.45-.5 1-.225 1-.5 1-.5.45-.5 1-.225 1-.5 1-.5.45-.5 1-.225 1-.5 1-.5.45-.5 1-.225 1-.5 1-.5.45-.5 1c0 .968.333 1 10.5 1s10.5-.032 10.5-1c0-.55.225-1 .5-1s.5-.401.5-.89.45-1.214 1-1.61c.55-.397 1-1.121 1-1.611 0-.489.225-.889.5-.889s.5-.45.5-1 .225-1 .5-1 .5-.45.5-1 .225-1 .5-1 .5-.45.5-1 .225-1 .5-1 .5-.45.5-1 .225-1 .5-1 .5-.45.5-1 .225-1 .5-1 .5-.45.5-1 .225-1 .5-1 .5-.45.5-1 .225-1 .5-1 .5-.45.5-1 .225-1 .5-1 .5-.45.5-1 .225-1 .5-1 .5-.4.5-.89c0-.489.45-1.213 1-1.61s1-1.121 1-1.61c0-.49.225-.89.5-.89s.5-.45.5-1 .225-1 .5-1 .5-.45.5-1 .225-1 .5-1 .5-.45.5-1 .225-1 .5-1 .5-.45.5-1 .225-1 .5-1 .5-.45.5-1 .225-1 .5-1 .5-.45.5-1 .225-1 .5-1 .5-.45.5-1 .225-1 .5-1 .5-.4.5-.89c0-.489.45-1.213 1-1.61s1-1.121 1-1.61c0-.49.225-.89.5-.89s.5-.626.5-1.39c0-.816.413-1.686 1-2.11.55-.397 1-1.121 1-1.61 0-.49.225-.89.5-.89s.5-.45.5-1 .225-1 .5-1 .5-.45.5-1 .225-1 .5-1 .5-.45.5-1 .225-1 .5-1 .5-.45.5-1c0-.576.334-1 .786-1 1.01 0 2.214 1.204 2.214 2.215 0 .431.225.785.5.785s.5.45.5 1 .225 1 .5 1 .5.4.5.89c0 .489.45 1.213 1 1.61s1 1.121 1 1.61c0 .49.225.89.5.89s.5.45.5 1 .225 1 .5 1 .5.45.5 1 .225 1 .5 1 .5.45.5 1 .225 1 .5 1 .5.45.5 1 .225 1 .5 1 .5.45.5 1 .225 1 .5 1 .5.45.5 1 .225 1 .5 1 .5.45.5 1 .225 1 .5 1 .5.4.5.89c0 .489.45 1.213 1 1.61.587.424 1 1.294 1 2.11V92h-11.5c-11.167 0-11.5.029-11.5 1 0 .55.225 1 .5 1s.5.45.5 1 .225 1 .5 1 .5.45.5 1 .225 1 .5 1 .5.45.5 1 .225 1 .5 1 .5.45.5 1 .225 1 .5 1 .5.45.5 1 .225 1 .5 1 .5.347.5.772c0 .425.552 1.325 1.227 2l1.228 1.228h11.558c12.065 0 12.987.157 12.987 2.214 0 .432.225.786.5.786s.5.45.5 1 .225 1 .5 1 .5.45.5 1 .225 1 .5 1 .5.4.5.889c0 .49.45 1.214 1 1.611.55.396 1 1.121 1 1.61 0 .489.225.89.5.89s.5.45.5 1 .225 1 .5 1 .5.353.5.785c0 1.959 1.115 2.215 9.672 2.215 6.107 0 8.32.162 8.536.625.233.5.351.5.584 0 .16-.344.948-.625 1.75-.625s1.458-.225 1.458-.5-.225-.5-.5-.5-.5-.45-.5-1-.225-1-.5-1-.5-.626-.5-1.39c0-.816-.413-1.687-1-2.11-.55-.397-1-1.121-1-1.611 0-.489-.225-.889-.5-.889s-.5-.45-.5-1-.225-1-.5-1-.5-.45-.5-1-.225-1-.5-1-.5-.45-.5-1-.225-1-.5-1-.5-.45-.5-1-.225-1-.5-1-.5-.45-.5-1-.225-1-.5-1-.5-.401-.5-.89-.45-1.214-1-1.61c-.55-.397-1-1.121-1-1.611 0-.489-.225-.889-.5-.889s-.5-.45-.5-1-.225-1-.5-1-.5-.45-.5-1-.225-1-.5-1-.5-.45-.5-1-.225-1-.5-1-.5-.45-.5-1-.225-1-.5-1-.5-.45-.5-1-.225-1-.5-1-.5-.45-.5-1-.225-1-.5-1-.5-.45-.5-1-.225-1-.5-1-.5-.4-.5-.89c0-.489-.45-1.213-1-1.61s-1-1.121-1-1.61c0-.49-.225-.89-.5-.89s-.5-.45-.5-1-.225-1-.5-1-.5-.45-.5-1-.225-1-.5-1-.5-.45-.5-1-.225-1-.5-1-.5-.45-.5-1-.225-1-.5-1-.5-.45-.5-1-.225-1-.5-1-.5-.45-.5-1-.225-1-.5-1-.5-.45-.5-1-.225-1-.5-1-.5-.45-.5-1-.225-1-.5-1-.5-.4-.5-.89c0-.489-.45-1.213-1-1.61s-1-1.121-1-1.61c0-.49-.225-.89-.5-.89s-.5-.45-.5-1-.225-1-.5-1-.5-.45-.5-1-.225-1-.5-1-.5-.45-.5-1-.225-1-.5-1-.5-.45-.5-1-.225-1-.5-1-.5-.4-.5-.89c0-.489-.45-1.213-1-1.61s-1-1.072-1-1.5c0-.428-.45-1.103-1-1.5s-1-1.019-1-1.383c0-.912-2.282-3.117-3.227-3.117-.425 0-.773-.225-.773-.5s-.45-.5-1-.5-1-.225-1-.5-.45-.5-1-.5-1-.225-1-.5c0-.297-1.833-.5-4.5-.5s-4.5.203-4.5.5zm38 0c0 .275.225.5.5.5s.5.4.5.89c0 .489.45 1.213 1 1.61s1 1.031 1 1.41.675 1.32 1.5 2.09c.825.77 1.5 1.67 1.5 2 0 .33.675 1.23 1.5 2s1.5 1.712 1.5 2.09c0 .379.45 1.013 1 1.41s1 1.031 1 1.41.675 1.32 1.5 2.09c.825.77 1.5 1.712 1.5 2.09 0 .379.45 1.013 1 1.41s1 1.031 1 1.41.675 1.32 1.5 2.09c.825.77 1.5 1.67 1.5 2 0 .33.675 1.23 1.5 2s1.5 1.712 1.5 2.09c0 .379.45 1.013 1 1.41s1 1.026 1 1.4c0 .373.9 1.543 2 2.6 1.1 1.057 2 2.227 2 2.6 0 .374.45 1.004 1 1.4.55.397 1 1.072 1 1.5 0 .428.45 1.103 1 1.5s1 1.031 1 1.41.675 1.32 1.5 2.09c.825.77 1.5 1.67 1.5 2 0 .33.675 1.23 1.5 2s1.5 1.761 1.5 2.2c0 .44.225.8.5.8s.5.45.5 1 .225 1 .5 1c.794 0 .671 23.847-.125 24.17-.47.191-.439.387.125.792.666.478.666.598 0 1.076-.564.405-.595.601-.125.791.344.14.625.685.625 1.212 0 .911.471.959 9.5.959h9.5v-15.39c0-14.816.038-15.416 1-16.11.55-.397 1-1.031 1-1.41s.675-1.32 1.5-2.09c.825-.77 1.5-1.712 1.5-2.09 0-.379.45-1.013 1-1.41s1-1.031 1-1.41.675-1.32 1.5-2.09c.825-.77 1.5-1.67 1.5-2 0-.33.675-1.23 1.5-2s1.5-1.712 1.5-2.09c0-.379.45-1.013 1-1.41s1-1.031 1-1.41.675-1.32 1.5-2.09c.825-.77 1.5-1.67 1.5-2 0-.33.675-1.23 1.5-2s1.5-1.712 1.5-2.09c0-.379.45-1.013 1-1.41s1-1.031 1-1.41.675-1.32 1.5-2.09c.825-.77 1.5-1.67 1.5-2 0-.33.675-1.23 1.5-2s1.5-1.712 1.5-2.09c0-.379.45-1.013 1-1.41s1-1.031 1-1.41.675-1.32 1.5-2.09c.825-.77 1.5-1.712 1.5-2.09 0-.379.45-1.013 1-1.41s1-1.031 1-1.41.675-1.32 1.5-2.09c.825-.77 1.5-1.536 1.5-1.7 0-.165-1.781-.3-3.958-.3-2.678 0-4.053-.202-4.25-.625-.233-.5-.351-.5-.584 0-.409.876-12.036.89-12.328.014-.249-.745-2.88 1.746-2.88 2.728 0 .364-.45.986-1 1.383s-1 1.031-1 1.41-.675 1.32-1.5 2.09c-.825.77-1.5 1.67-1.5 2 0 .33-.675 1.23-1.5 2s-1.5 1.712-1.5 2.09c0 .379-.45 1.013-1 1.41s-1 1.031-1 1.41-.675 1.32-1.5 2.09c-.825.77-1.5 1.712-1.5 2.09 0 .379-.45 1.013-1 1.41s-1 1.031-1 1.41-.675 1.32-1.5 2.09c-.825.77-1.5 1.712-1.5 2.09 0 .379-.45 1.013-1 1.41s-1 1.031-1 1.41-.675 1.32-1.5 2.09c-.825.77-1.5 1.665-1.5 1.987 0 .749-1.256 2.013-2 2.013-.783 0-2-1.28-2-2.104 0-.371-.45-1-1-1.396-.55-.397-1-1.031-1-1.41s-.675-1.32-1.5-2.09c-.825-.77-1.5-1.712-1.5-2.09 0-.379-.45-1.013-1-1.41s-1-1.031-1-1.41-.675-1.32-1.5-2.09c-.825-.77-1.5-1.712-1.5-2.09 0-.379-.45-1.013-1-1.41s-1-1.031-1-1.41-.675-1.32-1.5-2.09c-.825-.77-1.5-1.712-1.5-2.09 0-.379-.45-1.013-1-1.41s-1-1.031-1-1.41-.675-1.32-1.5-2.09c-.825-.77-1.5-1.712-1.5-2.09 0-.379-.45-1.013-1-1.41s-1-1.019-1-1.383c0-.364-.552-1.214-1.227-1.89-1.197-1.197-1.417-1.227-8.958-1.227-5.696 0-7.808-.164-8.023-.625-.233-.5-.351-.5-.584 0-.35.75-5.208.866-5.208.125 0-.275-.225-.5-.5-.5s-.5.225-.5.5zm-463 1c0 .275-.9.5-2 .5s-2 .225-2 .5-.45.5-1 .5-1 .225-1 .5-.675.5-1.5.5-1.5.225-1.5.5-.45.5-1 .5-1 .225-1 .5-.4.5-.889.5c-.49 0-1.215.45-1.611 1-.396.55-1.012 1-1.367 1C222.29 48 213 57.29 213 58.133c0 .355-.45.97-1 1.367s-1 1.072-1 1.5c0 .428-.45 1.103-1 1.5-.587.423-1 1.294-1 2.11 0 .764-.225 1.39-.5 1.39s-.5.45-.5 1-.225 1-.5 1-.5.675-.5 1.5-.225 1.5-.5 1.5-.5.9-.5 2-.225 2-.5 2c-.312 0-.5 3-.5 8s.188 8 .5 8c.275 0 .5.9.5 2s.225 2 .5 2 .5.675.5 1.5.225 1.5.5 1.5.5.626.5 1.39c0 .815.413 1.686 1 2.11.55.396 1 1.121 1 1.61 0 .489.225.89.5.89s.5.4.5.889c0 .49.45 1.214 1 1.611.55.396 1 1.012 1 1.367 0 .844 8.289 9.133 9.133 9.133.355 0 .971.45 1.367 1s1.072 1 1.5 1c.428 0 1.104.45 1.5 1 .396.55 1.121 1 1.611 1 .489 0 .889.225.889.5s.675.5 1.5.5 1.5.225 1.5.5.675.5 1.5.5 1.5.225 1.5.5.675.5 1.5.5 1.5.225 1.5.5c0 .328 10.333.5 30 .5h30V74h-55v18h36v16h-16.5c-10.667 0-16.5-.177-16.5-.5 0-.275-1.125-.5-2.5-.5s-2.5-.225-2.5-.5-.675-.5-1.5-.5-1.5-.225-1.5-.5-.4-.5-.889-.5c-.49 0-1.215-.45-1.611-1-.396-.55-1.014-1-1.371-1-.911 0-6.129-5.313-6.129-6.239 0-.418-.225-.761-.5-.761s-.5-.45-.5-1-.225-1-.5-1-.5-.45-.5-1-.225-1-.5-1-.5-.675-.5-1.5-.225-1.5-.5-1.5c-.306 0-.5-2.334-.5-6s.194-6 .5-6c.275 0 .5-.675.5-1.5s.225-1.5.5-1.5.5-.45.5-1 .225-1 .5-1 .5-.45.5-1 .225-1 .5-1 .5-.343.5-.761c0-.927 5.218-6.239 6.129-6.239.357 0 .975-.45 1.371-1s1.121-1 1.611-1c.489 0 .889-.225.889-.5s.675-.5 1.5-.5 1.5-.225 1.5-.5 1.125-.5 2.5-.5 2.5-.225 2.5-.5c0-.327 9-.5 26-.5h26V41h-30c-19.667 0-30 .172-30 .5zm88 0c0 .275-.45.5-1 .5s-1 .225-1 .5-.342.5-.761.5c-.99 0-6.239 5.249-6.239 6.239 0 .419-.225.761-.5.761s-.5.45-.5 1-.225 1-.5 1-.5.675-.5 1.5-.225 1.5-.5 1.5-.5.675-.5 1.5V58h32c21 0 32 .172 32 .5 0 .275.675.5 1.5.5s1.5.225 1.5.5.45.5 1 .5c.666 0 1 .334 1 1 0 .55.225 1 .5 1s.5.45.5 1 .225 1 .5 1 .5 1.125.5 2.5-.225 2.5-.5 2.5-.5.347-.5.772c0 1.001-2.227 3.228-3.228 3.228-.425 0-.772.225-.772.5 0 .326-8.333.5-24 .5s-24 .174-24 .5c0 .275-.675.5-1.5.5s-1.5.225-1.5.5-.625.5-1.389.5c-.816 0-1.687.413-2.111 1-.396.55-1.012 1-1.368 1-.91 0-8.132 7.32-8.132 8.242 0 .417-.225.758-.5.758s-.5.45-.5 1-.225 1-.5 1-.5.675-.5 1.5-.225 1.5-.5 1.5c-.323 0-.5 5.834-.5 16.5V125h67.546l1.226-1.228c.675-.675 1.228-1.575 1.228-2 0-.425.225-.772.5-.772s.5-.45.5-1 .225-1 .5-1 .5-.45.5-1 .225-1 .5-1 .5-.45.5-1 .225-1 .5-1 .5-.45.5-1 .225-1 .5-1 .5-.45.5-1 .225-1 .5-1 .5-.45.5-1 .225-1 .5-1 .5-.225.5-.5c0-.328-9.928-.5-28.785-.5-24.281 0-28.898-.112-29.5-.715-.841-.84-1.033-8.285-.215-8.285.275 0 .5-.57.5-1.266 0-1.409 2.973-4.734 4.233-4.734.422 0 .767-.225.767-.5 0-.326 8-.5 23-.5s23-.174 23-.5c0-.275.9-.5 2-.5s2-.225 2-.5.45-.5 1-.5 1-.225 1-.5.45-.5 1-.5 1-.225 1-.5.341-.5.758-.5c.988 0 8.242-7.254 8.242-8.242 0-.417.225-.758.5-.758s.5-.45.5-1 .225-1 .5-1 .5-.45.5-1 .225-1 .5-1 .5-.675.5-1.5.225-1.5.5-1.5c.303 0 .5-2.166.5-5.5s-.197-5.5-.5-5.5c-.275 0-.5-.9-.5-2s-.225-2-.5-2-.5-.45-.5-1-.225-1-.5-1-.5-.4-.5-.89c0-.489-.45-1.213-1-1.61s-1-1.014-1-1.371c0-.91-5.313-6.129-6.239-6.129-.419 0-.761-.225-.761-.5s-.45-.5-1-.5-1-.225-1-.5-.45-.5-1-.5-1-.225-1-.5-.45-.5-1-.5-1-.225-1-.5c0-.328-10.333-.5-30-.5s-30 .172-30 .5zm213 8V58h29.5c19.333 0 29.5.172 29.5.5 0 .275.45.5 1 .5s1 .225 1 .5.354.5.786.5c1.01 0 2.214 1.204 2.214 2.215 0 .431.225.785.5.785.278 0 .5 1.334.5 3s-.222 3-.5 3c-.275 0-.5.345-.5.766 0 .422-.78 1.547-1.734 2.5L599.534 74h-20.768c-13.511 0-20.766.174-20.766.5 0 .275-.9.5-2 .5s-2 .225-2 .5-.45.5-1 .5-1 .225-1 .5-.401.5-.89.5-1.214.45-1.61 1c-.396.55-1.013 1-1.371 1-.91 0-6.129 5.313-6.129 6.239 0 .418-.225.761-.5.761s-.5.45-.5 1-.225 1-.5 1-.5.45-.5 1-.225 1-.5 1-.5.9-.5 2-.225 2-.5 2c-.322 0-.5 5.5-.5 15.5V125h19v-14c0-9 .178-14 .5-14 .275 0 .5-.347.5-.772 0-1.001 2.227-3.228 3.227-3.228.425 0 .773-.225.773-.5 0-.325 6.833-.5 19.5-.5s19.5-.175 19.5-.5c0-.275 1.125-.5 2.5-.5s2.5-.225 2.5-.5.45-.5 1-.5 1-.225 1-.5.359-.5.799-.5c.44 0 1.43-.675 2.201-1.5.771-.825 1.654-1.5 1.964-1.5.844 0 5.036-4.359 5.036-5.237 0-.42.225-.763.5-.763s.5-.45.5-1 .225-1 .5-1 .5-.45.5-1 .225-1 .5-1 .5-.45.5-1 .225-1 .5-1 .5-1.125.5-2.5.225-2.5.5-2.5c.278 0 .5-1.334.5-3s-.222-3-.5-3c-.275 0-.5-1.125-.5-2.5s-.225-2.5-.5-2.5-.5-.45-.5-1-.225-1-.5-1-.5-.45-.5-1-.225-1-.5-1-.5-.36-.5-.8c0-.439-.675-1.43-1.5-2.2-.825-.77-1.5-1.658-1.5-1.974 0-.788-2.305-3.026-3.117-3.026-.364 0-.987-.45-1.383-1s-1.121-1-1.61-1c-.489 0-.89-.225-.89-.5s-.45-.5-1-.5-1-.225-1-.5-.675-.5-1.5-.5-1.5-.225-1.5-.5c0-.328-11.167-.5-32.5-.5H539v8.5zm-105.875 67.762c-.618.661-1.125 1.548-1.125 1.97 0 .422-.225.768-.5.768-1.039 0-.437 1.597 1.233 3.266 1.671 1.671 1.869 1.734 5.5 1.734 2.178 0 3.767-.211 3.767-.5 0-.283-1.424-.5-3.272-.5-2.809 0-3.447-.174-4.5-1.228-.675-.675-1.228-1.697-1.228-2.272 0-.575.553-1.598 1.228-2.273 1.053-1.053 1.691-1.227 4.5-1.227 1.848 0 3.272-.218 3.272-.5 0-.293-1.605-.488-3.875-.47-3.425.027-4.006.17-5 1.232zm12.5-.514c-.343.39-.625 1.057-.625 1.481 0 .424-.225.771-.5.771-1.058 0-.521 3.524.728 4.772 1.101 1.102 1.643 1.228 5.285 1.228 4.175 0 5.487-.53 5.487-2.215 0-.432.225-.785.5-.785s.5-.675.5-1.5-.225-1.5-.5-1.5-.5-.354-.5-.786c0-1.703-1.305-2.215-5.59-2.195-2.947.013-4.342.226-4.785.729zM461 117c0 .55-.225 1-.5 1s-.5.675-.5 1.5-.225 1.5-.5 1.5-.5.45-.5 1-.225 1-.5 1-.5.45-.5 1c0 .666.334 1 1 1 .666 0 1-.334 1-1 0-.55.225-1 .5-1s.5-.675.5-1.5.225-1.5.5-1.5.5-.45.5-1 .225-1 .5-1 .5.45.5 1 .225 1 .5 1 .5.45.5 1 .225 1 .5 1 .5.45.5 1c0 .778.334 1 1.5 1 1.334 0 1.5-.167 1.5-1.5 0-.825.225-1.5.5-1.5s.5-.354.5-.786c0-.758 1.128-2.214 1.715-2.214.157 0 .285.675.285 1.5s.225 1.5.5 1.5.5.578.5 1.285c0 .708.322 1.608.715 2 .819.82 2.285.957 2.285.215 0-.275-.225-.5-.5-.5s-.5-.45-.5-1-.225-1-.5-1-.5-.675-.5-1.5-.225-1.5-.5-1.5-.5-.675-.5-1.5c0-1.417-.111-1.5-2-1.5s-2 .083-2 1.5c0 .825-.225 1.5-.5 1.5s-.5.45-.5 1-.128 1-.285 1c-.676 0-1.715-1.515-1.715-2.5 0-1.442-1.149-2.5-2.715-2.5-.952 0-1.285.259-1.285 1zm-7.228 1.227c.675.675 1.228 1.698 1.228 2.273 0 1.886-2.18 3.5-4.728 3.5-1.25 0-2.272-.225-2.272-.5s-.45-.5-1-.5c-.867 0-1-.334-1-2.5 0-2.167.133-2.5 1-2.5.55 0 1-.225 1-.5s1.022-.5 2.272-.5c1.747 0 2.557.284 3.5 1.227zm-26.147 5.521c-.866.983-.786 1.252.375 1.252.666 0 1-.334 1-1 0-1.164-.493-1.255-1.375-.252z" fill="#5B6376"/><path d="M.5 82l83-82 34 82-34-34-83 34z" fill="#5B6376"/><path d="M117.5 82l-34-82L166 81.5l-82 34L117.5 82z" fill="#6E778F"/><path d="M83 115l83-33-83 83-34-83.5L83 115z" fill="#5B6376"/><path d="M83 48.5L.5 81.5l82.5 83-34-83 34-33z" fill="#6E778F"/></svg>