<svg version="1.1" id="_лой_1" xmlns="http://www.w3.org/2000/svg" x="0" y="0" viewBox="0 0 150 40" style="enable-background:new 0 0 150 40" xml:space="preserve"><style>.st0{fill:#f8ff13}.st1{fill:#fff}</style><path class="st0" d="M63 27.6h-6l2.1-11.9h6L63 27.6z"/><path class="st1" d="M128.5 27.6h-6l2.1-11.9h6l-2.1 11.9zM117.3 15.6l-.8 4.5h-6l.8-4.5h-6l-.8 4.5-.5 3-.8 4.5h6l.8-4.5h6l-.8 4.5h6l.8-4.5.5-3 .8-4.5h-6zM80.3 15.6H66.4l-.5 3h10.6c.4 0 .6.3.5.7 0 .4-.4.7-.7.7H65.6l-.5 3-.8 4.6h13.9c2.2 0 4.3-1.8 4.7-4l.1-.3c.2-.9-.2-2.1-1.1-2.3.4-.2 1-.9 1.1-1.7l.1-.3c.3-1.9-.9-3.4-2.8-3.4zm-3.3 8c-.1.4-.4.7-.8.7h-5.3l.2-1.3h5.3c.4-.1.6.2.6.6zM148.9 18.6c.3-1.8-1-3-2.8-3h-11.3c-1.8 0-3.6 1.5-3.9 3.3l-.1.7c-.3 1.8.9 3.3 2.7 3.3h8c.4 0 .6.3.5.7-.1.4-.4.7-.8.7H130c-.3 1.8.9 3.3 2.7 3.3h10.6c2.2 0 4.3-1.8 4.7-4l.1-.3c.3-1.8-.9-3.3-2.7-3.3h-8c-.4 0-.6-.3-.5-.7.1-.4.4-.7.8-.7h11.2z"/><path class="st0" d="M17.3 15.6H2.7l-1.3 7.6h13.9c2.2 0 4.3-1.8 4.7-4V19c.3-1.9-.9-3.4-2.7-3.4zM14 19.3c0 .2-.1.3-.3.5-.1.1-.3.2-.5.2H7.9l.2-1.3h5.3c.4-.1.6.2.6.6zM3.6 27.6h2.9l.5-3H1c-.2 1.6 1 3 2.6 3zM57.4 19.3l.1-.3c.3-1.8-.9-3.3-2.7-3.3H40.1L38 27.6h6l.8-4.3h1.7l3 4.3h6.4l-3-4.3c2.1-.1 4.1-1.9 4.5-4zm-11.8-.7h5.3c.4 0 .6.3.5.7 0 .4-.4.7-.8.7h-5.3l.3-1.4zM30.6 27.6H37l-2.5-11.9H23.7L17 27.6h6.4l.9-1.7h5.8l.5 1.7zm-4.4-5 2.4-4.3.9 4.3h-3.3z"/><path class="st1" d="M95.7 27.6h6.4l-2.5-11.9H88.8l-6.7 11.9h6.4l.9-1.7h5.8l.5 1.7zm-4.3-5 2.4-4.3.9 4.3h-3.3z"/><path class="st0" d="M65.3 14.8h-6l.3-2.4h6l-.3 2.4z"/><path class="st1" d="M130.9 14.8h-6l.3-2.4h6l-.3 2.4z"/></svg>