<svg width="240" height="80" viewBox="0 0 240 80" fill="none" xmlns="http://www.w3.org/2000/svg"><path d="M40.452 65.851H62.69c5.089 0 5.136-5.409 4.618-8.071-.282-1.797-3.33-1.778-3.668 0v2.079a1.74 1.74 0 01-1.731 1.73h-42.7a1.731 1.731 0 01-1.731-1.73v-2.041c-.339-1.779-3.387-1.797-3.669 0-.517 2.671-.47 8.071 4.619 8.071h22.023v-.038zm-15.786-51.74h34.346a4.535 4.535 0 014.384 4.647v2.22a2.137 2.137 0 11-4.252 0v-1.223a1.401 1.401 0 00-1.402-1.401H23.33a1.401 1.401 0 00-1.401 1.401v1.186c0 3.123-4.055 3.095-4.055.066v-2.249a4.534 4.534 0 014.393-4.647h2.4zM62.53 39.614a6.793 6.793 0 014.017 6.077 7.056 7.056 0 01-7.28 6.802h-11.15a1.881 1.881 0 01-1.88-1.778v-21.28a1.882 1.882 0 011.88-1.88h9.267a7.112 7.112 0 015.136 12.05l.01.01zm-8.344-1.73h3.547a3.386 3.386 0 002.822-3.34 3.387 3.387 0 00-3.377-3.377h-7.15v17.62h9.069a3.49 3.49 0 000-6.971h-4.91a1.961 1.961 0 110-3.923M44.44 50.367a2.25 2.25 0 01-2.89 2.548 2.25 2.25 0 01-1.569-2.078L38.1 33.904 31.618 50.47a2.23 2.23 0 01-.451.593 2.228 2.228 0 01-.386.273h-.264a2.243 2.243 0 01-.658.122h-.16a2.24 2.24 0 01-.734-.15h-.188a2.244 2.244 0 01-.339-.236l-.075-.066-.056-.056-.057-.056-.066-.076a2.24 2.24 0 01-.62-.018v-.151l-6.651-16.726-1.882 16.933a2.248 2.248 0 01-4.459-.47l2.164-19.953a3.763 3.763 0 013.208-3.274h.122a3.77 3.77 0 01.564 0 3.687 3.687 0 013.283 2.352l5.55 14.11 5.551-14.11a3.688 3.688 0 013.283-2.352 3.77 3.77 0 01.565 0h.122a3.763 3.763 0 013.208 3.274l2.248 19.934zm67.244-17.686a1.645 1.645 0 113.292 0v8.9a7.403 7.403 0 01-7.384 7.385 7.405 7.405 0 01-7.385-7.385v-8.9a1.645 1.645 0 012.81-1.164c.309.309.483.728.483 1.164v8.9a4.13 4.13 0 004.111 4.101 4.13 4.13 0 004.101-4.11l-.028-8.89zm15.55 13.01a1.644 1.644 0 011.647 1.647 1.646 1.646 0 01-1.647 1.646h-4.543a6.188 6.188 0 01-6.181-6.18V32.68a1.645 1.645 0 113.292 0v10.113a2.929 2.929 0 002.907 2.898h4.544-.019zM99.567 47.14a1.647 1.647 0 11-3.264.386l-1.411-11.853-5.033 11.665a1.647 1.647 0 01-3.02 0l-4.995-11.665-1.411 11.853a1.657 1.657 0 11-3.293-.386l1.637-13.763a2.635 2.635 0 011.44-2.041l.32-.141h.13c.16-.049.324-.083.49-.104a2.822 2.822 0 012.296.725c.124.117.237.247.338.385.07.1.133.203.188.31a1.4 1.4 0 01.094.18l4.262 9.887 4.261-9.888a2.71 2.71 0 011.882-1.561c.176-.045.355-.073.536-.085h.508a2.82 2.82 0 012.05 1.317c.147.245.252.512.311.79.005.073.005.145 0 .217l1.684 13.772zm34.864.198a1.65 1.65 0 01-1.646 1.646 1.648 1.648 0 01-1.647-1.646v-13.01h-4.703a1.644 1.644 0 01-1.647-1.647 1.646 1.646 0 011.647-1.646h12.662a1.646 1.646 0 110 3.292h-4.704l.038 13.01zm10.263 0a1.645 1.645 0 11-3.292 0V32.68a1.645 1.645 0 113.292 0v14.657zm33.763-.198a1.655 1.655 0 01-.795 1.706 1.645 1.645 0 01-2.469-1.31l-.583-4.648h-5.701a1.644 1.644 0 01-1.647-1.646 1.646 1.646 0 011.647-1.646h5.296l-.169-1.214v-.113a6.144 6.144 0 00-.188-.837 5.597 5.597 0 00-.339-.866 3.758 3.758 0 00-3.33-2.22 3.514 3.514 0 00-1.562.377 4.613 4.613 0 00-2.286 3.668l-1.025 9.144a1.658 1.658 0 01-.569 1.186 1.646 1.646 0 01-2.696-1.543l1.026-9.144a7.89 7.89 0 014.064-6.237 6.575 6.575 0 011.458-.536 6.786 6.786 0 011.599-.188 6.92 6.92 0 016.256 4.045c.225.447.411.913.555 1.392.131.437.228.884.292 1.336.003.05.003.1 0 .15l1.166 9.144zm5.043.198a1.646 1.646 0 01-3.293 0V33.725a1.662 1.662 0 010-.282 2.26 2.26 0 01.132-.536c.038-.1.082-.197.131-.292.28-.509.74-.895 1.289-1.082l.226-.056h.179c.131-.01.263-.01.395 0a2.313 2.313 0 011.74.894l8.834 11.09v-10.78a1.645 1.645 0 113.292 0v13.547a2.307 2.307 0 01-1.195 2.032l-.206.103-.132.057a2.306 2.306 0 01-1.769-.104l-.216-.113a2.282 2.282 0 01-.329-.244 2.013 2.013 0 01-.207-.217l-.057-.066-8.814-11.175v10.837zm25.7-1.647a1.644 1.644 0 011.647 1.647 1.646 1.646 0 01-1.647 1.646h-4.854a6.501 6.501 0 01-6.491-6.482v-4.967a6.502 6.502 0 016.482-6.49h4.854a1.646 1.646 0 110 3.292h-4.854a3.227 3.227 0 00-3.208 3.208v4.948a3.225 3.225 0 003.208 3.208h4.854l.009-.01zm9.53-11.364a4.489 4.489 0 00-3.114 1.242 4.03 4.03 0 00-1.27 2.907v3.067a4.035 4.035 0 001.27 2.907 4.498 4.498 0 003.123 1.241 4.485 4.485 0 003.114-1.241 4.031 4.031 0 001.27-2.907v-3.067a4.034 4.034 0 00-1.27-2.907 4.496 4.496 0 00-3.123-1.242zm0-3.283a7.78 7.78 0 015.39 2.154 7.292 7.292 0 012.277 5.269v3.066a7.313 7.313 0 01-2.277 5.278 7.778 7.778 0 01-5.39 2.154 7.778 7.778 0 01-5.39-2.154 7.292 7.292 0 01-2.277-5.268v-3.067a7.307 7.307 0 012.277-5.268 7.778 7.778 0 015.381-2.164h.009zm-69.36 3.283v11.364h6.359a2.09 2.09 0 002.07-2.07 2.06 2.06 0 00-.546-1.391l-.066-.057a2.066 2.066 0 00-1.458-.611h-2.192a1.648 1.648 0 01-1.164-2.81 1.647 1.647 0 011.164-.483h.753c.469-.037.909-.24 1.242-.574.369-.365.579-.863.583-1.383a1.985 1.985 0 00-1.966-1.966h-4.77l-.009-.019zm-3.293 5.579v-7.15a1.691 1.691 0 01.518-1.223 1.691 1.691 0 011.1-.489h6.444a5.257 5.257 0 015.25 5.25 5.22 5.22 0 01-.81 2.822c.34.212.656.462.941.743l.104.113a5.33 5.33 0 01-.103 7.45 5.365 5.365 0 01-3.783 1.572h-8.043a1.648 1.648 0 01-1.646-1.647l.028-7.441z" fill="#5B6376"/></svg>