<svg width="240" height="80" viewBox="0 0 240 80" fill="none" xmlns="http://www.w3.org/2000/svg"><path d="M143.867 30.293a4.48 4.48 0 100-8.961 4.48 4.48 0 000 8.961zM109.52 32.72a31.756 31.756 0 01-5.173 8.88V23.387l-9.387 1.866V58.32h9.387V48a35.536 35.536 0 014.053 10.213h11.253a72.834 72.834 0 00-5.973-13.146 41.19 41.19 0 006.587-12.427l-10.747.08zm24.693-.347c-8.4.267-12.666 4.054-12.666 11.547v14.373h9.12V46.587c0-4.48.586-6.427 5.92-6.587v-7.467a12.73 12.73 0 00-2.427 0l.053-.16zm-55.04 4c-1.146 0-3.813-.24-3.813-2.666 0-2.88 3.84-2.88 5.333-2.88 2.763.123 5.497.607 8.134 1.44 0 0 1.306.453 2.426.933v-8h-.133a32.507 32.507 0 00-11.92-1.893c-10.267 0-13.893 5.973-13.893 11.093 0 2.96 1.253 9.893 13.013 10.667.987 0 3.627.213 3.627 2.666 0 2.054-2.16 3.254-5.814 3.254a28.558 28.558 0 01-10.213-1.974v8.16a47.599 47.599 0 0012.213 1.494c10.027 0 14.534-5.654 14.534-11.254 0-6.346-5.014-10.48-13.334-11.04h-.16zm60.134 21.92h9.093V32.747h-9.093v25.546zm26.24-33.28v33.28h9.093V23.387l-9.093 1.626zm-13.334 0l9.094-1.626v34.906h-9.04v-33.28h-.054z" fill="#5C6374"/></svg>