<svg width="240" height="84" viewBox="0 0 240 84" fill="none" xmlns="http://www.w3.org/2000/svg"><path d="M109.645 20.391c2.338 0 4.676.344 6.346 1.032 1.671.687 3.341 1.718 4.343 3.093 1.336 1.375 2.004 2.75 2.673 4.469.668 1.718 1.002 3.78 1.002 5.5 0 4.812-1.336 8.249-4.009 10.655-2.672 2.406-6.681 3.437-12.026 3.437h-4.676v17.53H90.27V20.392h19.375zm-4.009 19.937c1.67 0 3.007-.344 3.675-1.375 1.002-1.031 1.336-2.407 1.336-4.125 0-3.781-1.671-5.5-5.011-5.5h-2.338v11.343h2.338v-.343zm-43.76 16.499v-9.28h15.366v-9.625H61.876v-7.906h16.368V20.39H61.876v-4.468H48.848V66.45h30.064v-9.968H61.876v.344zm79.503-21.311c2.673 0 5.011.687 6.347 2.062 1.336 1.375 2.004 3.437 2.004 5.5 0 .687 0 1.718-.334 2.406-.334.687-.334 1.374-1.002 2.062-.334.688-1.002 1.031-1.336 1.719l-2.004 1.03c1.002 0 1.67.344 2.672.688.668.344 1.336 1.032 1.67 1.719l1.002 2.062c.335.688.335 1.719.335 2.406 0 1.375-.335 2.407-.669 3.781-.334 1.032-1.002 2.063-1.67 2.75-.668.688-1.67 1.375-2.672 1.72-1.002.343-2.673.686-4.009.686h-11.691V35.172h11.357v.344zm-2.338 12.03c.668 0 1.336-.344 2.004-1.031.334-.688.668-1.375.668-2.063 0-1.03-.334-1.718-.668-2.406-.334-.687-1.002-1.03-2.004-1.03h-2.004v6.186h2.004v.344zm.334 13.062c.668 0 1.336-.344 2.004-1.031.668-.688 1.002-1.719 1.002-2.75 0-1.375-.334-2.063-1.002-2.75-.668-.688-1.336-1.031-2.004-1.031h-2.338v7.562h2.338zm33.07-25.092l7.35 30.935h-8.352l-.668-5.5h-6.347l-1.002 5.5h-8.351l7.349-30.935h10.021zm-5.01 6.53l-2.004 13.062h4.342l-2.338-13.062zm26.39-6.53l5.01 18.904V35.516h7.35V66.45h-8.686l-5.345-19.249V66.45h-7.349V35.516h9.02zm28.06 0v12.03l5.678-12.03h8.352l-7.683 13.405 8.351 17.53h-9.02l-4.008-10.655-1.67 2.75v8.249h-7.683V35.859h7.683v-.343zM24.797 50.983v2.406c0 1.375-.335 2.75-.669 3.438-.334 1.031-.668 1.375-1.336 1.718-.668.344-1.002.688-2.004.688s-1.67-.344-2.338-.688c-.668-.343-1.002-1.375-1.337-2.406-.334-1.375-.334-2.75-.668-4.812V35.516c0-2.063.334-3.781.668-4.813.335-1.375.669-2.062 1.337-2.406.668-.344 1.336-.687 2.338-.687 1.336 0 2.004.343 2.672 1.375.668 1.03 1.002 2.75 1.002 5.5v1.374h12.694v-1.718c0-2.406-.334-4.125-1.002-6.188-.668-1.718-1.67-3.437-2.672-4.468-1.336-1.375-3.007-2.406-5.011-3.094-2.004-.687-4.677-1.03-7.349-1.03-3.34 0-6.013.343-8.351 1.374-2.339.688-4.009 2.062-5.345 4.125-1.336 2.062-2.338 4.468-3.006 7.562-.668 3.094-1.002 6.875-1.002 11.343s.334 7.906.668 11c.334 3.093 1.336 5.499 2.672 7.561 1.336 2.063 3.006 3.438 5.345 4.125 2.338.688 5.345 1.375 9.02 1.375 2.003 0 4.008-.344 6.012-.687 2.004-.344 3.674-1.375 5.345-2.407 1.67-1.03 2.672-2.75 3.674-4.812 1.002-2.062 1.336-4.812 1.336-7.906v-.343H24.797v-.688z" fill="#5C6374"/></svg>