<svg width="240" height="80" viewBox="0 0 240 80" fill="none" xmlns="http://www.w3.org/2000/svg"><path d="M141.067 45.6h-16.534c.267 1.333.534 2.133 1.067 2.933.8.8 1.867 1.334 3.2 1.334.8 0 1.6-.267 2.4-.534.533-.266.8-.8 1.333-1.333l8.267.8c-1.333 2.133-2.667 3.467-4.533 4.533-1.867.8-4.267 1.334-7.734 1.334-2.933 0-5.066-.267-6.666-1.067-1.6-.8-2.934-2.133-4-3.733-1.067-1.6-1.6-3.734-1.6-5.867 0-3.2 1.066-5.867 3.2-8 2.133-2.133 5.066-2.933 9.066-2.933 3.2 0 5.6.533 7.467 1.333 1.867.8 3.2 2.133 4 4 1.067 1.6 1.333 4 1.333 6.667v.533h-.266zm-8.267-3.733c-.267-1.6-.533-2.667-1.333-3.2-.8-.534-1.6-1.067-2.667-1.067-1.333 0-2.4.533-3.2 1.6-.533.533-.8 1.6-1.067 2.667h8.267zm22.133-15.734v7.2h4.534V39.2h-4.534v7.467c0 .8 0 1.6.267 1.866.267.534.8.534 1.333.534.534 0 1.6-.267 2.667-.534l.533 5.6c-2.133.534-4 .534-5.866.534-2.134 0-3.467-.267-4.534-.8-1.066-.534-1.6-1.334-2.133-2.4-.533-1.067-.8-2.667-.8-5.067v-7.2h-2.933v-5.867h3.2v-7.2h8.266zm7.467 17.6c0-3.2 1.067-5.866 3.467-7.733 2.4-1.867 5.333-3.2 9.066-3.2 4.267 0 7.734 1.333 9.867 3.733 1.867 1.867 2.667 4.267 2.667 7.2 0 3.2-1.067 5.867-3.2 7.734-2.134 2.133-5.334 2.933-9.067 2.933-3.467 0-6.4-.8-8.533-2.667-2.934-1.866-4.267-4.533-4.267-8zm8.267 0c0 1.867.266 3.2 1.066 4 .8.8 1.867 1.334 2.934 1.334 1.066 0 2.133-.534 2.933-1.334.8-.8 1.067-2.4 1.067-4.266 0-1.867-.267-3.2-1.067-4-.8-.8-1.867-1.334-2.933-1.334-1.334 0-2.134.534-2.934 1.334-.533 1.066-1.066 2.4-1.066 4.266zm20.533-10.4h7.733V36.8c1.067-1.333 2.4-2.4 3.467-2.933 1.067-.534 2.667-.8 4.267-.8 2.4 0 4 .533 5.333 1.866 1.333 1.334 1.867 3.2 1.867 6.134V54.4H205.6V42.667c0-1.334-.267-2.134-.8-2.667-.533-.533-1.333-.8-2.133-.8-1.067 0-1.867.267-2.4 1.067-.534.8-1.067 2.133-1.067 4v9.866h-8.267v-20.8h.267zm-88-8v17.6c0 1.867-.267 2.934-.8 3.734-.267.8-1.067 1.333-2.133 1.333-.534 0-1.067 0-1.6-.267-.534-.266-.8-.8-1.067-1.6 0-.266-.267-.533-.267-1.066h-8.8c.267 1.866.8 3.733 1.334 5.066.8 1.6 2.133 2.667 3.733 3.467 1.6.8 4 1.067 6.933 1.067 2.934 0 5.067-.534 6.934-1.867 1.866-1.067 2.933-2.667 3.733-4.267.8-1.6.8-4.266.8-7.466V25.333h-8.8zm-48.267-1.066A18.778 18.778 0 0044.8 21.333c-7.467 0-13.6 4.267-16.8 10.4l26.933-7.466zM25.867 39.2v.8c0 4 1.333 8 3.466 10.933L63.467 41.6c0-.533.266-1.067.266-1.6 0-3.733-1.066-7.467-3.2-10.4l-34.666 9.6zM34.133 56c2.934 2.133 6.667 3.2 10.667 3.2 7.467 0 13.867-4.533 17.067-10.667L34.133 56zm43.734-38.4h-3.2v45.067H77.6V17.6h.267z" fill="#5B6376"/></svg>