<svg width="240" height="80" viewBox="0 0 240 80" fill="none" xmlns="http://www.w3.org/2000/svg"><path d="M91.298 74.854v-4.647a2.73 2.73 0 00-2.944-2.945 3.057 3.057 0 00-2.634 1.317 2.71 2.71 0 00-2.474-1.317 2.502 2.502 0 00-2.173 1.082v-.94h-1.618v7.431h1.627v-4.082c0-1.317.696-1.938 1.778-1.938s1.627.696 1.627 1.938v4.101h1.628v-4.102a1.712 1.712 0 011.778-1.937c1.082 0 1.627.696 1.627 1.938v4.101h1.778zm24.092-7.432h-2.634v-2.248h-1.627v2.248h-1.468v1.468h1.468v3.405c0 1.703.696 2.71 2.559 2.71a4.338 4.338 0 002.013-.546l-.461-1.392a2.55 2.55 0 01-1.392.386c-.772 0-1.082-.462-1.082-1.242V68.89h2.634v-1.468h-.01zm13.792-.15a2.182 2.182 0 00-1.938 1.082v-.941h-1.628v7.432h1.628v-4.177c0-1.242.545-1.938 1.552-1.938.34.012.678.063 1.007.15l.46-1.552a5.102 5.102 0 00-1.081-.075v.019zm-20.838.771a5.314 5.314 0 00-2.982-.78c-1.881 0-3.095.94-3.095 2.398 0 1.242.941 1.938 2.559 2.173l.771.076c.857.15 1.317.385 1.317.771 0 .546-.62.94-1.702.94a4.27 4.27 0 01-2.474-.77l-.772 1.241a5.475 5.475 0 003.18.94c2.173 0 3.405-1.006 3.405-2.398 0-1.392-1.006-2.013-2.558-2.248l-.772-.076c-.696-.075-1.242-.235-1.242-.696 0-.46.546-.856 1.393-.856a5.59 5.59 0 012.323.621l.696-1.317-.047-.019zm43.218-.771a2.182 2.182 0 00-1.938 1.082v-.941h-1.628v7.432h1.628v-4.177c0-1.242.545-1.938 1.552-1.938.34.012.678.063 1.007.15l.461-1.552a5.116 5.116 0 00-1.082-.075v.019zm-20.8 3.866a3.764 3.764 0 003.951 3.876 3.857 3.857 0 002.634-.856l-.771-1.317a3.132 3.132 0 01-1.938.696 2.204 2.204 0 01-2.138-1.484 2.201 2.201 0 01-.11-.915 2.273 2.273 0 011.358-2.204c.28-.124.583-.19.89-.195a3.132 3.132 0 011.938.697l.771-1.318a3.857 3.857 0 00-2.634-.856 3.768 3.768 0 00-3.682 2.356c-.194.483-.285 1-.269 1.52zm15.052 0v-3.763h-1.628v.941a2.818 2.818 0 00-2.323-1.082 3.877 3.877 0 000 7.742 2.607 2.607 0 002.323-1.081v.94h1.628v-3.697zm-5.964 0a2.248 2.248 0 114.497 0 2.248 2.248 0 01-4.497 0zm-19.436-3.876a3.876 3.876 0 00.075 7.743 4.704 4.704 0 003.02-1.007l-.771-1.166a3.698 3.698 0 01-2.173.771 2.09 2.09 0 01-2.249-1.778h5.503v-.612c.076-2.398-1.317-3.95-3.405-3.95zm0 1.412a1.812 1.812 0 011.726 1.079c.098.22.151.458.155.698h-3.875a1.957 1.957 0 011.994-1.777zm40.357 2.474v-6.67h-1.627v3.876a2.819 2.819 0 00-2.324-1.082 3.876 3.876 0 000 7.742 2.606 2.606 0 002.324-1.082v.941h1.627v-3.725zm-5.964 0a2.247 2.247 0 114.495 0 2.247 2.247 0 01-4.495 0zm-54.374 0v-3.763h-1.656v.94a2.822 2.822 0 00-2.323-1.081 3.876 3.876 0 000 7.742 2.606 2.606 0 002.323-1.063v.94h1.628l.028-3.715zm-6.04 0a2.249 2.249 0 114.497 0 2.249 2.249 0 01-4.497 0z" fill="#5B6376"/><path d="M132.201 10.95h-24.402v43.838h24.402V10.95z" fill="#6C7791"/><path d="M109.351 32.879a27.953 27.953 0 0110.611-21.92A27.872 27.872 0 0076.407 23.79a27.874 27.874 0 0026.359 36.972 27.712 27.712 0 0017.196-5.964 27.848 27.848 0 01-10.611-21.92zm55.767 0a27.86 27.86 0 01-30.832 27.724 27.853 27.853 0 01-14.248-5.805 27.948 27.948 0 000-43.839 27.853 27.853 0 0140.845 7.128 27.86 27.86 0 014.235 14.792z" fill="#5B6376"/></svg>