<svg width="240" height="80" viewBox="0 0 240 80" fill="none" xmlns="http://www.w3.org/2000/svg"><path d="M209.2 26.427A18.96 18.96 0 00198.533 24h-12.266l-4.56 24.747h-16l1.04-5.627h9.68l1.146-6.293H168l1.04-5.6h9.973l1.2-7.227H160l-4.32 23.467h-7.44L152.587 24H141.92l-4.32 23.467h-7.147L134.8 24h-10.667l-4.56 24.747h-16.08l1.014-5.627h9.706l1.147-6.267h-9.68l1.04-5.6h10.08L118.107 24H55.04l-3.6 19.6L44.293 24H33.307l-5.894 32h10.48l3.574-20.16L48.4 56h37.573l4.694-24.747h5.866L91.84 56h98.853l2.854-15.627L198.187 56h10.48l-4.8-12.773 1.093-.24a9.416 9.416 0 005.707-3.307 10.215 10.215 0 001.973-6.453 7.655 7.655 0 00-3.387-6.8h-.053zM76.853 48.747h-16l1.04-5.627H72l1.147-6.32H63.093L64 31.253h16l-3.227 17.494h.08zM200.56 38.08a8 8 0 01-4.667 1.093h-2.08l1.6-8.586h1.52a7.12 7.12 0 013.867.853 3.358 3.358 0 011.493 2.987 4.218 4.218 0 01-1.733 3.653z" fill="#5B6376"/></svg>