<svg width="240" height="80" viewBox="0 0 240 80" fill="none" xmlns="http://www.w3.org/2000/svg"><path fill-rule="evenodd" clip-rule="evenodd" d="M198.593 47.621c-4.212-10.902 2.971-22.577 15.922-25.883 2.697-.688 6.896-.441 9.641.304 7.755 2.104 11.839 6.19 14.636 12.831a10.35 10.35 0 01.819 4.033l-.007 9.102v9.647a2.94 2.94 0 01-.771 1.965 3.215 3.215 0 01-.658.57c-2.559 1.63-5.158 1.339-6.709-.792l-.014-.02c-.407-.557-.638-.874-.951-.968-.41-.123-.962.137-2.236.738l-.033.015c-9.37 4.417-21.513 1.573-26.772-6.269-.433-.646-.978-1.371-1.211-1.612-.233-.24-.623-.961-.867-1.602a637.9 637.9 0 00-.789-2.059zm23.3 4.513c11.577-3.16 11.577-18.383 0-21.545-9.104-2.487-17.424 5.895-14.394 14.498 1.975 5.604 8.312 8.707 14.394 7.047zm-43.386-19.707c1.95-5.484 5.902-9.171 11.417-10.649 1.306-.35 7.307-.414 7.986-.086 4.86 2.354 3.02 8.304-2.57 8.304-2.994 0-4.729.57-6.207 2.037-2.123 2.11-2.134 2.181-2.141 15.22-.006 9.022-.064 11.058-.327 11.533-1.655 2.984-6.018 3.316-7.975.607l-.136-.188a3.177 3.177 0 01-.613-1.863V35.546c0-1.01.174-2.013.515-2.974l.051-.145zm-87.129.265c2.949-5.466 8.398-9.539 14.44-10.793 10.683-2.216 22.473 4.563 24.988 14.368.642 2.504 1.296 5.28.003 10.363-2.956 11.616-18.186 18.254-29.516 12.864l-.258-.123c-.984-.47-1.606-.768-2-.608-.68.275-.682 1.906-.688 6.346v.677l.009 6.222c0 .623-.05 1.256-.372 1.807-.515.883-1.678 2.12-4.15 2.12-3.474 0-4.05-2.345-4.194-2.932v-.001l-.02-.077a.27.27 0 00-.015-.045c-.363-.76-.67-33.488-.31-34.993.578-2.41 1.013-3.216 1.945-4.94l.138-.255zm27.336 16.665c6.337-5.986 3.746-15.987-4.837-18.672-8.942-2.796-17.592 5.238-14.942 13.879 2.491 8.119 13.448 10.774 19.779 4.793zM2.291 32.693c2.948-5.466 8.398-9.539 14.44-10.793 10.683-2.216 22.473 4.563 24.988 14.369.642 2.503 1.296 5.28.003 10.362-2.956 11.615-18.187 18.254-29.516 12.864l-.258-.123c-.984-.47-1.607-.768-2.001-.608-.68.275-.681 1.906-.687 6.346v.677l.008 6.222c.001.623-.05 1.256-.371 1.808-.516.882-1.678 2.118-4.15 2.118-3.475 0-4.05-2.344-4.195-2.931a.924.924 0 00-.034-.123c-.364-.76-.73-33.431-.37-34.935.558-2.33 1.035-3.21 1.912-4.827l.23-.426zm27.335 16.664c6.337-5.986 3.747-15.987-4.837-18.672-8.942-2.796-17.592 5.238-14.941 13.879 2.49 8.119 13.447 10.774 19.778 4.793zm119.768-27.619c-12.951 3.306-20.134 14.981-15.923 25.883.19.492.545 1.419.789 2.059.244.64.634 1.362.867 1.602.233.24.779.966 1.212 1.612 5.258 7.842 17.402 10.686 26.772 6.27l.033-.016c1.274-.6 1.826-.86 2.236-.738.313.094.543.41.95.969l.014.019c1.552 2.13 4.151 2.422 6.71.793.249-.159.466-.357.658-.571a2.94 2.94 0 00.771-1.965v-9.647l.007-9.102a10.35 10.35 0 00-.819-4.033c-2.797-6.642-7.716-10.954-14.637-12.831-2.154-.585-7.837-.764-9.64-.304zm7.379 8.85c11.577 3.163 11.577 18.386 0 21.546-6.081 1.66-12.418-1.443-14.393-7.047-3.031-8.604 5.29-16.985 14.393-14.499zM44.838 47.621c-4.212-10.902 2.97-22.577 15.922-25.883 1.803-.46 7.486-.281 9.64.304 6.92 1.877 11.84 6.19 14.637 12.831.543 1.289.82 2.655.82 4.033l-.008 9.102v9.647a2.94 2.94 0 01-.77 1.965 3.195 3.195 0 01-.659.57c-2.559 1.63-5.158 1.339-6.71-.792l-.013-.02c-.407-.557-.638-.874-.95-.968-.411-.123-.963.137-2.237.738l-.033.015c-9.37 4.417-21.514 1.573-26.772-6.269-.433-.646-.978-1.371-1.211-1.612-.233-.24-.623-.961-.867-1.602-.244-.64-.6-1.567-.79-2.059zm23.306 4.513c11.577-3.16 11.577-18.383 0-21.546-9.104-2.486-17.424 5.895-14.393 14.499 1.974 5.604 8.311 8.706 14.393 7.047z" fill="#5C6374"/></svg>