<svg width="240" height="80" viewBox="0 0 240 80" fill="none" xmlns="http://www.w3.org/2000/svg"><path d="M110.235 63.038H98.241L105.738 17h11.985l-7.488 46.04zM88.156 16.99l-11.42 31.674-1.355-6.82-4.036-20.696s-.489-4.149-5.644-4.149H46.773l-.226.78a44.769 44.769 0 0112.54 5.269l10.414 39.981h12.493l19.069-46.04H88.156zm94.29 46.04h11.006l-9.595-46.04h-9.643c-4.449 0-5.531 3.433-5.531 3.433L150.809 63.04h12.493l2.502-6.84h15.24l1.402 6.83zm-13.17-16.285l6.303-17.234 3.546 17.234h-9.849zM151.74 28.062l1.713-9.887a34.605 34.605 0 00-10.781-2.004c-5.946 0-20.076 2.606-20.076 15.24 0 11.9 16.576 12.041 16.576 18.288 0 6.246-14.873 5.127-19.755 1.185l-1.788 10.348a33.576 33.576 0 0013.528 2.606c8.175 0 20.518-4.233 20.518-15.767 0-11.966-16.727-13.085-16.727-18.287 0-5.203 11.665-4.544 16.792-1.722z" fill="#5B6376"/><path d="M75.381 41.844l-4.036-20.696s-.489-4.149-5.644-4.149H46.773l-.226.78a46.463 46.463 0 0117.79 8.938A35.908 35.908 0 0175.38 41.844z" fill="#5B6376"/></svg>